G04 #@! TF.GenerationSoftware,KiCad,Pcbnew,(5.1.6)-1*
G04 #@! TF.CreationDate,2021-01-24T21:52:35-08:00*
G04 #@! TF.ProjectId,infrared_remote,696e6672-6172-4656-945f-72656d6f7465,rev?*
G04 #@! TF.SameCoordinates,Original*
G04 #@! TF.FileFunction,Soldermask,Bot*
G04 #@! TF.FilePolarity,Negative*
%FSLAX46Y46*%
G04 Gerber Fmt 4.6, Leading zero omitted, Abs format (unit mm)*
G04 Created by KiCad (PCBNEW (5.1.6)-1) date 2021-01-24 21:52:35*
%MOMM*%
%LPD*%
G01*
G04 APERTURE LIST*
%ADD10C,0.800000*%
%ADD11C,4.500000*%
%ADD12R,3.100000X1.100000*%
%ADD13O,1.800000X1.800000*%
%ADD14R,1.800000X1.800000*%
%ADD15O,1.300000X2.000000*%
%ADD16C,1.550000*%
G04 APERTURE END LIST*
D10*
G04 #@! TO.C,H4*
X105924726Y-85733274D03*
X104758000Y-85250000D03*
X103591274Y-85733274D03*
X103108000Y-86900000D03*
X103591274Y-88066726D03*
X104758000Y-88550000D03*
X105924726Y-88066726D03*
X106408000Y-86900000D03*
D11*
X104758000Y-86900000D03*
G04 #@! TD*
D10*
G04 #@! TO.C,H3*
X105924726Y-43733274D03*
X104758000Y-43250000D03*
X103591274Y-43733274D03*
X103108000Y-44900000D03*
X103591274Y-46066726D03*
X104758000Y-46550000D03*
X105924726Y-46066726D03*
X106408000Y-44900000D03*
D11*
X104758000Y-44900000D03*
G04 #@! TD*
D10*
G04 #@! TO.C,H2*
X87924726Y-85733274D03*
X86758000Y-85250000D03*
X85591274Y-85733274D03*
X85108000Y-86900000D03*
X85591274Y-88066726D03*
X86758000Y-88550000D03*
X87924726Y-88066726D03*
X88408000Y-86900000D03*
D11*
X86758000Y-86900000D03*
G04 #@! TD*
D10*
G04 #@! TO.C,H1*
X87924726Y-43733274D03*
X86758000Y-43250000D03*
X85591274Y-43733274D03*
X85108000Y-44900000D03*
X85591274Y-46066726D03*
X86758000Y-46550000D03*
X87924726Y-46066726D03*
X88408000Y-44900000D03*
D11*
X86758000Y-44900000D03*
G04 #@! TD*
D12*
G04 #@! TO.C,SW4*
X92583000Y-76407800D03*
X98933000Y-76407800D03*
G04 #@! TD*
G04 #@! TO.C,SW3*
X92583000Y-69407800D03*
X98933000Y-69407800D03*
G04 #@! TD*
G04 #@! TO.C,SW2*
X92583000Y-62407800D03*
X98933000Y-62407800D03*
G04 #@! TD*
G04 #@! TO.C,SW1*
X92583000Y-55407800D03*
X98933000Y-55407800D03*
G04 #@! TD*
D13*
G04 #@! TO.C,J6*
X97048000Y-40640000D03*
D14*
X94508000Y-40640000D03*
G04 #@! TD*
D13*
G04 #@! TO.C,J5*
X103378000Y-64516000D03*
D14*
X103378000Y-67056000D03*
G04 #@! TD*
D13*
G04 #@! TO.C,J4*
X88138000Y-64516000D03*
D14*
X88138000Y-67056000D03*
G04 #@! TD*
D13*
G04 #@! TO.C,J3*
X88188000Y-55372000D03*
D14*
X88188000Y-52832000D03*
G04 #@! TD*
D13*
G04 #@! TO.C,J2*
X103428000Y-55372000D03*
D14*
X103428000Y-52832000D03*
G04 #@! TD*
D15*
G04 #@! TO.C,J1*
X99258000Y-90137500D03*
X92258000Y-90137500D03*
D16*
X98258000Y-87437500D03*
X93258000Y-87437500D03*
G04 #@! TD*
G04 #@! TO.C,D1*
G36*
G01*
X96031000Y-81504262D02*
X96031000Y-80547738D01*
G75*
G02*
X96302738Y-80276000I271738J0D01*
G01*
X97009262Y-80276000D01*
G75*
G02*
X97281000Y-80547738I0J-271738D01*
G01*
X97281000Y-81504262D01*
G75*
G02*
X97009262Y-81776000I-271738J0D01*
G01*
X96302738Y-81776000D01*
G75*
G02*
X96031000Y-81504262I0J271738D01*
G01*
G37*
G36*
G01*
X93981000Y-81504262D02*
X93981000Y-80547738D01*
G75*
G02*
X94252738Y-80276000I271738J0D01*
G01*
X94959262Y-80276000D01*
G75*
G02*
X95231000Y-80547738I0J-271738D01*
G01*
X95231000Y-81504262D01*
G75*
G02*
X94959262Y-81776000I-271738J0D01*
G01*
X94252738Y-81776000D01*
G75*
G02*
X93981000Y-81504262I0J271738D01*
G01*
G37*
G04 #@! TD*
M02*
