G04 #@! TF.GenerationSoftware,KiCad,Pcbnew,(5.1.6)-1*
G04 #@! TF.CreationDate,2021-01-24T21:52:35-08:00*
G04 #@! TF.ProjectId,infrared_remote,696e6672-6172-4656-945f-72656d6f7465,rev?*
G04 #@! TF.SameCoordinates,Original*
G04 #@! TF.FileFunction,Copper,L2,Bot*
G04 #@! TF.FilePolarity,Positive*
%FSLAX46Y46*%
G04 Gerber Fmt 4.6, Leading zero omitted, Abs format (unit mm)*
G04 Created by KiCad (PCBNEW (5.1.6)-1) date 2021-01-24 21:52:35*
%MOMM*%
%LPD*%
G01*
G04 APERTURE LIST*
G04 #@! TA.AperFunction,ComponentPad*
%ADD10C,0.700000*%
G04 #@! TD*
G04 #@! TA.AperFunction,ComponentPad*
%ADD11C,4.400000*%
G04 #@! TD*
G04 #@! TA.AperFunction,SMDPad,CuDef*
%ADD12R,3.000000X1.000000*%
G04 #@! TD*
G04 #@! TA.AperFunction,ComponentPad*
%ADD13O,1.700000X1.700000*%
G04 #@! TD*
G04 #@! TA.AperFunction,ComponentPad*
%ADD14R,1.700000X1.700000*%
G04 #@! TD*
G04 #@! TA.AperFunction,ComponentPad*
%ADD15O,1.200000X1.900000*%
G04 #@! TD*
G04 #@! TA.AperFunction,ComponentPad*
%ADD16C,1.450000*%
G04 #@! TD*
G04 #@! TA.AperFunction,ViaPad*
%ADD17C,0.600000*%
G04 #@! TD*
G04 #@! TA.AperFunction,ViaPad*
%ADD18C,0.800000*%
G04 #@! TD*
G04 #@! TA.AperFunction,Conductor*
%ADD19C,0.250000*%
G04 #@! TD*
G04 #@! TA.AperFunction,Conductor*
%ADD20C,0.800000*%
G04 #@! TD*
G04 #@! TA.AperFunction,Conductor*
%ADD21C,0.400000*%
G04 #@! TD*
G04 #@! TA.AperFunction,Conductor*
%ADD22C,0.254000*%
G04 #@! TD*
G04 APERTURE END LIST*
D10*
G04 #@! TO.P,H4,1*
G04 #@! TO.N,GND*
X105924726Y-85733274D03*
X104758000Y-85250000D03*
X103591274Y-85733274D03*
X103108000Y-86900000D03*
X103591274Y-88066726D03*
X104758000Y-88550000D03*
X105924726Y-88066726D03*
X106408000Y-86900000D03*
D11*
X104758000Y-86900000D03*
G04 #@! TD*
D10*
G04 #@! TO.P,H3,1*
G04 #@! TO.N,GND*
X105924726Y-43733274D03*
X104758000Y-43250000D03*
X103591274Y-43733274D03*
X103108000Y-44900000D03*
X103591274Y-46066726D03*
X104758000Y-46550000D03*
X105924726Y-46066726D03*
X106408000Y-44900000D03*
D11*
X104758000Y-44900000D03*
G04 #@! TD*
D10*
G04 #@! TO.P,H2,1*
G04 #@! TO.N,GND*
X87924726Y-85733274D03*
X86758000Y-85250000D03*
X85591274Y-85733274D03*
X85108000Y-86900000D03*
X85591274Y-88066726D03*
X86758000Y-88550000D03*
X87924726Y-88066726D03*
X88408000Y-86900000D03*
D11*
X86758000Y-86900000D03*
G04 #@! TD*
D10*
G04 #@! TO.P,H1,1*
G04 #@! TO.N,GND*
X87924726Y-43733274D03*
X86758000Y-43250000D03*
X85591274Y-43733274D03*
X85108000Y-44900000D03*
X85591274Y-46066726D03*
X86758000Y-46550000D03*
X87924726Y-46066726D03*
X88408000Y-44900000D03*
D11*
X86758000Y-44900000D03*
G04 #@! TD*
D12*
G04 #@! TO.P,SW4,1*
G04 #@! TO.N,PA6*
X92583000Y-76407800D03*
G04 #@! TO.P,SW4,2*
G04 #@! TO.N,GND*
X98933000Y-76407800D03*
G04 #@! TD*
G04 #@! TO.P,SW3,1*
G04 #@! TO.N,PA3*
X92583000Y-69407800D03*
G04 #@! TO.P,SW3,2*
G04 #@! TO.N,GND*
X98933000Y-69407800D03*
G04 #@! TD*
G04 #@! TO.P,SW2,1*
G04 #@! TO.N,PA2*
X92583000Y-62407800D03*
G04 #@! TO.P,SW2,2*
G04 #@! TO.N,GND*
X98933000Y-62407800D03*
G04 #@! TD*
G04 #@! TO.P,SW1,1*
G04 #@! TO.N,PA1*
X92583000Y-55407800D03*
G04 #@! TO.P,SW1,2*
G04 #@! TO.N,GND*
X98933000Y-55407800D03*
G04 #@! TD*
D13*
G04 #@! TO.P,J6,2*
G04 #@! TO.N,Net-(J6-Pad2)*
X97048000Y-40640000D03*
D14*
G04 #@! TO.P,J6,1*
G04 #@! TO.N,BAT+*
X94508000Y-40640000D03*
G04 #@! TD*
D13*
G04 #@! TO.P,J5,2*
G04 #@! TO.N,GND*
X103378000Y-64516000D03*
D14*
G04 #@! TO.P,J5,1*
G04 #@! TO.N,UPDI*
X103378000Y-67056000D03*
G04 #@! TD*
D13*
G04 #@! TO.P,J4,2*
G04 #@! TO.N,GND*
X88138000Y-64516000D03*
D14*
G04 #@! TO.P,J4,1*
G04 #@! TO.N,UPDI*
X88138000Y-67056000D03*
G04 #@! TD*
D13*
G04 #@! TO.P,J3,2*
G04 #@! TO.N,BAT-*
X88188000Y-55372000D03*
D14*
G04 #@! TO.P,J3,1*
G04 #@! TO.N,BAT+*
X88188000Y-52832000D03*
G04 #@! TD*
D13*
G04 #@! TO.P,J2,2*
G04 #@! TO.N,BAT-*
X103428000Y-55372000D03*
D14*
G04 #@! TO.P,J2,1*
G04 #@! TO.N,BAT+*
X103428000Y-52832000D03*
G04 #@! TD*
D15*
G04 #@! TO.P,J1,6*
G04 #@! TO.N,Net-(J1-Pad6)*
X99258000Y-90137500D03*
X92258000Y-90137500D03*
D16*
X98258000Y-87437500D03*
X93258000Y-87437500D03*
G04 #@! TD*
G04 #@! TO.P,D1,2*
G04 #@! TO.N,VCC*
G04 #@! TA.AperFunction,SMDPad,CuDef*
G36*
G01*
X96081000Y-81476001D02*
X96081000Y-80575999D01*
G75*
G02*
X96330999Y-80326000I249999J0D01*
G01*
X96981001Y-80326000D01*
G75*
G02*
X97231000Y-80575999I0J-249999D01*
G01*
X97231000Y-81476001D01*
G75*
G02*
X96981001Y-81726000I-249999J0D01*
G01*
X96330999Y-81726000D01*
G75*
G02*
X96081000Y-81476001I0J249999D01*
G01*
G37*
G04 #@! TD.AperFunction*
G04 #@! TO.P,D1,1*
G04 #@! TO.N,~CHRG*
G04 #@! TA.AperFunction,SMDPad,CuDef*
G36*
G01*
X94031000Y-81476001D02*
X94031000Y-80575999D01*
G75*
G02*
X94280999Y-80326000I249999J0D01*
G01*
X94931001Y-80326000D01*
G75*
G02*
X95181000Y-80575999I0J-249999D01*
G01*
X95181000Y-81476001D01*
G75*
G02*
X94931001Y-81726000I-249999J0D01*
G01*
X94280999Y-81726000D01*
G75*
G02*
X94031000Y-81476001I0J249999D01*
G01*
G37*
G04 #@! TD.AperFunction*
G04 #@! TD*
D17*
G04 #@! TO.N,VCC*
X98171000Y-80518000D03*
G04 #@! TO.N,GND*
X95504000Y-82550000D03*
X88646000Y-72644000D03*
X91694000Y-72644000D03*
X100330000Y-64262000D03*
X87376000Y-60960000D03*
X88646000Y-60960000D03*
X88646000Y-59690000D03*
X87376000Y-59690000D03*
X97282000Y-57150000D03*
X98282000Y-57150000D03*
X99282000Y-57150000D03*
X100282000Y-57150000D03*
X101282000Y-57150000D03*
X97282000Y-58150000D03*
X98282000Y-58150000D03*
X99282000Y-58150000D03*
X100282000Y-58150000D03*
X101282000Y-58150000D03*
X101330000Y-64262000D03*
X100330000Y-65262000D03*
X101330000Y-65262000D03*
X100330000Y-66262000D03*
X101330000Y-66262000D03*
X100330000Y-67262000D03*
X101330000Y-67262000D03*
X100330000Y-68262000D03*
X101330000Y-68262000D03*
X99568000Y-72644000D03*
X100568000Y-72644000D03*
X101568000Y-72644000D03*
X102568000Y-72644000D03*
X103568000Y-72644000D03*
X87646000Y-72644000D03*
X86646000Y-72644000D03*
D18*
G04 #@! TO.N,BAT-*
X106045000Y-73152000D03*
G04 #@! TO.N,BAT+*
X92202000Y-57658000D03*
D17*
X101981000Y-83947000D03*
X92837000Y-83947000D03*
G04 #@! TO.N,~CHRG*
X92837000Y-81661000D03*
G04 #@! TO.N,Net-(Q1-Pad4)*
X94742000Y-77724000D03*
X96774000Y-77597000D03*
G04 #@! TO.N,Net-(R6-Pad2)*
X95758000Y-57277000D03*
X92456000Y-53975000D03*
G04 #@! TO.N,PA1*
X90805000Y-56769000D03*
G04 #@! TO.N,PA2*
X96520000Y-66929000D03*
G04 #@! TO.N,PA3*
X94869000Y-67818000D03*
G04 #@! TO.N,PA6*
X91440000Y-65405000D03*
G04 #@! TD*
D19*
G04 #@! TO.N,VCC*
X96656000Y-81026000D02*
X97663000Y-81026000D01*
X97663000Y-81026000D02*
X98171000Y-80518000D01*
D20*
G04 #@! TO.N,BAT-*
X104630081Y-55372000D02*
X106934000Y-57675919D01*
X103428000Y-55372000D02*
X104630081Y-55372000D01*
X106934000Y-57675919D02*
X106934000Y-72263000D01*
X106934000Y-72263000D02*
X106045000Y-73152000D01*
G04 #@! TO.N,BAT+*
X89850000Y-82484000D02*
X84963000Y-77597000D01*
X84963000Y-56057000D02*
X88188000Y-52832000D01*
X103428000Y-52832000D02*
X88188000Y-52832000D01*
X88188000Y-52832000D02*
X88188000Y-51639000D01*
X94508000Y-45319000D02*
X94508000Y-40640000D01*
X88188000Y-51639000D02*
X94508000Y-45319000D01*
D21*
X84963000Y-61341000D02*
X84963000Y-59563000D01*
D20*
X84963000Y-61341000D02*
X84963000Y-56057000D01*
X84963000Y-77597000D02*
X84963000Y-61341000D01*
D21*
X84963000Y-59563000D02*
X86868000Y-57658000D01*
X86868000Y-57658000D02*
X92202000Y-57658000D01*
X96740556Y-83947000D02*
X101981000Y-83947000D01*
X89850000Y-82484000D02*
X89850000Y-82611000D01*
X93853000Y-83947000D02*
X94869000Y-83947000D01*
X94869000Y-83947000D02*
X96740556Y-83947000D01*
X92837000Y-83947000D02*
X94869000Y-83947000D01*
X91186000Y-83947000D02*
X92837000Y-83947000D01*
X89850000Y-82611000D02*
X91186000Y-83947000D01*
D19*
G04 #@! TO.N,~CHRG*
X93971000Y-81661000D02*
X94606000Y-81026000D01*
X92837000Y-81661000D02*
X93971000Y-81661000D01*
G04 #@! TO.N,Net-(Q1-Pad4)*
X94742000Y-77724000D02*
X96647000Y-77724000D01*
X96647000Y-77724000D02*
X96774000Y-77597000D01*
D21*
G04 #@! TO.N,Net-(R6-Pad2)*
X95758000Y-55862798D02*
X93870202Y-53975000D01*
X95758000Y-57277000D02*
X95758000Y-55862798D01*
X93870202Y-53975000D02*
X92456000Y-53975000D01*
D19*
G04 #@! TO.N,PA1*
X91221800Y-56769000D02*
X92583000Y-55407800D01*
X90805000Y-56769000D02*
X91221800Y-56769000D01*
G04 #@! TO.N,PA2*
X92583000Y-62407800D02*
X95300800Y-62407800D01*
X95300800Y-62407800D02*
X96520000Y-63627000D01*
X96520000Y-63627000D02*
X96520000Y-66929000D01*
G04 #@! TO.N,PA3*
X94869000Y-67818000D02*
X94869000Y-68453000D01*
X93914200Y-69407800D02*
X92583000Y-69407800D01*
X94869000Y-68453000D02*
X93914200Y-69407800D01*
G04 #@! TO.N,PA6*
X92583000Y-76407800D02*
X90170000Y-73994800D01*
X90170000Y-73994800D02*
X90170000Y-66675000D01*
X90170000Y-66675000D02*
X91440000Y-65405000D01*
G04 #@! TD*
D22*
G04 #@! TO.N,GND*
G36*
X105308558Y-38319933D02*
G01*
X105943960Y-38511772D01*
X106529994Y-38823373D01*
X107044347Y-39242870D01*
X107467419Y-39754275D01*
X107783104Y-40338123D01*
X107979375Y-40972170D01*
X108052001Y-41663164D01*
X108052000Y-87597722D01*
X107984067Y-88290558D01*
X107792228Y-88925958D01*
X107480630Y-89511991D01*
X107061130Y-90026347D01*
X106549725Y-90449419D01*
X105965878Y-90765103D01*
X105331830Y-90961375D01*
X104640845Y-91034000D01*
X100366241Y-91034000D01*
X100404511Y-90962401D01*
X100475130Y-90729601D01*
X100493000Y-90548164D01*
X100493000Y-89726835D01*
X100475130Y-89545398D01*
X100404511Y-89312599D01*
X100289833Y-89098051D01*
X100135502Y-88909998D01*
X100110861Y-88889775D01*
X102947830Y-88889775D01*
X103187976Y-89277018D01*
X103681877Y-89537641D01*
X104217133Y-89696901D01*
X104773174Y-89748678D01*
X105328632Y-89690981D01*
X105862161Y-89526028D01*
X106328024Y-89277018D01*
X106568170Y-88889775D01*
X104758000Y-87079605D01*
X102947830Y-88889775D01*
X100110861Y-88889775D01*
X99947448Y-88755667D01*
X99732900Y-88640989D01*
X99500101Y-88570370D01*
X99258000Y-88546525D01*
X99015898Y-88570370D01*
X99005965Y-88573383D01*
X99124949Y-88493881D01*
X99314381Y-88304449D01*
X99463216Y-88081701D01*
X99565736Y-87834197D01*
X99618000Y-87571448D01*
X99618000Y-87303552D01*
X99565736Y-87040803D01*
X99513699Y-86915174D01*
X101909322Y-86915174D01*
X101967019Y-87470632D01*
X102131972Y-88004161D01*
X102380982Y-88470024D01*
X102768225Y-88710170D01*
X104578395Y-86900000D01*
X104937605Y-86900000D01*
X106747775Y-88710170D01*
X107135018Y-88470024D01*
X107395641Y-87976123D01*
X107554901Y-87440867D01*
X107606678Y-86884826D01*
X107548981Y-86329368D01*
X107384028Y-85795839D01*
X107135018Y-85329976D01*
X106747775Y-85089830D01*
X104937605Y-86900000D01*
X104578395Y-86900000D01*
X102768225Y-85089830D01*
X102380982Y-85329976D01*
X102120359Y-85823877D01*
X101961099Y-86359133D01*
X101909322Y-86915174D01*
X99513699Y-86915174D01*
X99463216Y-86793299D01*
X99314381Y-86570551D01*
X99124949Y-86381119D01*
X98902201Y-86232284D01*
X98654697Y-86129764D01*
X98391948Y-86077500D01*
X98124052Y-86077500D01*
X97861303Y-86129764D01*
X97613799Y-86232284D01*
X97391051Y-86381119D01*
X97201619Y-86570551D01*
X97052784Y-86793299D01*
X96950264Y-87040803D01*
X96898000Y-87303552D01*
X96898000Y-87571448D01*
X96950264Y-87834197D01*
X97052784Y-88081701D01*
X97201619Y-88304449D01*
X97391051Y-88493881D01*
X97613799Y-88642716D01*
X97861303Y-88745236D01*
X98124052Y-88797500D01*
X98391948Y-88797500D01*
X98557768Y-88764516D01*
X98380498Y-88909998D01*
X98226167Y-89098052D01*
X98111489Y-89312600D01*
X98040870Y-89545399D01*
X98023000Y-89726836D01*
X98023000Y-90548165D01*
X98040870Y-90729602D01*
X98111489Y-90962401D01*
X98149760Y-91034000D01*
X93366241Y-91034000D01*
X93404511Y-90962401D01*
X93475130Y-90729602D01*
X93493000Y-90548165D01*
X93493000Y-89726836D01*
X93475130Y-89545399D01*
X93404511Y-89312599D01*
X93289833Y-89098051D01*
X93135502Y-88909998D01*
X92958232Y-88764516D01*
X93124052Y-88797500D01*
X93391948Y-88797500D01*
X93654697Y-88745236D01*
X93902201Y-88642716D01*
X94124949Y-88493881D01*
X94314381Y-88304449D01*
X94463216Y-88081701D01*
X94565736Y-87834197D01*
X94618000Y-87571448D01*
X94618000Y-87303552D01*
X94565736Y-87040803D01*
X94463216Y-86793299D01*
X94314381Y-86570551D01*
X94124949Y-86381119D01*
X93902201Y-86232284D01*
X93654697Y-86129764D01*
X93391948Y-86077500D01*
X93124052Y-86077500D01*
X92861303Y-86129764D01*
X92613799Y-86232284D01*
X92391051Y-86381119D01*
X92201619Y-86570551D01*
X92052784Y-86793299D01*
X91950264Y-87040803D01*
X91898000Y-87303552D01*
X91898000Y-87571448D01*
X91950264Y-87834197D01*
X92052784Y-88081701D01*
X92201619Y-88304449D01*
X92391051Y-88493881D01*
X92510035Y-88573383D01*
X92500102Y-88570370D01*
X92258000Y-88546525D01*
X92015899Y-88570370D01*
X91783100Y-88640989D01*
X91568552Y-88755667D01*
X91380499Y-88909998D01*
X91226168Y-89098051D01*
X91111489Y-89312599D01*
X91040870Y-89545398D01*
X91023000Y-89726835D01*
X91023000Y-90548164D01*
X91040870Y-90729601D01*
X91111489Y-90962400D01*
X91149760Y-91034000D01*
X86900278Y-91034000D01*
X86207442Y-90966067D01*
X85572042Y-90774228D01*
X84986009Y-90462630D01*
X84471653Y-90043130D01*
X84048581Y-89531725D01*
X83732897Y-88947878D01*
X83714911Y-88889775D01*
X84947830Y-88889775D01*
X85187976Y-89277018D01*
X85681877Y-89537641D01*
X86217133Y-89696901D01*
X86773174Y-89748678D01*
X87328632Y-89690981D01*
X87862161Y-89526028D01*
X88328024Y-89277018D01*
X88568170Y-88889775D01*
X86758000Y-87079605D01*
X84947830Y-88889775D01*
X83714911Y-88889775D01*
X83536625Y-88313830D01*
X83464000Y-87622845D01*
X83464000Y-86915174D01*
X83909322Y-86915174D01*
X83967019Y-87470632D01*
X84131972Y-88004161D01*
X84380982Y-88470024D01*
X84768225Y-88710170D01*
X86578395Y-86900000D01*
X86937605Y-86900000D01*
X88747775Y-88710170D01*
X89135018Y-88470024D01*
X89395641Y-87976123D01*
X89554901Y-87440867D01*
X89606678Y-86884826D01*
X89548981Y-86329368D01*
X89384028Y-85795839D01*
X89135018Y-85329976D01*
X88747775Y-85089830D01*
X86937605Y-86900000D01*
X86578395Y-86900000D01*
X84768225Y-85089830D01*
X84380982Y-85329976D01*
X84120359Y-85823877D01*
X83961099Y-86359133D01*
X83909322Y-86915174D01*
X83464000Y-86915174D01*
X83464000Y-84910225D01*
X84947830Y-84910225D01*
X86758000Y-86720395D01*
X88568170Y-84910225D01*
X102947830Y-84910225D01*
X104758000Y-86720395D01*
X106568170Y-84910225D01*
X106328024Y-84522982D01*
X105834123Y-84262359D01*
X105298867Y-84103099D01*
X104742826Y-84051322D01*
X104187368Y-84109019D01*
X103653839Y-84273972D01*
X103187976Y-84522982D01*
X102947830Y-84910225D01*
X88568170Y-84910225D01*
X88328024Y-84522982D01*
X87834123Y-84262359D01*
X87298867Y-84103099D01*
X86742826Y-84051322D01*
X86187368Y-84109019D01*
X85653839Y-84273972D01*
X85187976Y-84522982D01*
X84947830Y-84910225D01*
X83464000Y-84910225D01*
X83464000Y-56057000D01*
X83922994Y-56057000D01*
X83928001Y-56107838D01*
X83928000Y-61391837D01*
X83928001Y-61391847D01*
X83928000Y-77546172D01*
X83922994Y-77597000D01*
X83928000Y-77647828D01*
X83928000Y-77647837D01*
X83942976Y-77799894D01*
X84002159Y-77994992D01*
X84098266Y-78174797D01*
X84227604Y-78332396D01*
X84267097Y-78364807D01*
X89154092Y-83251803D01*
X89272202Y-83348734D01*
X89452006Y-83444840D01*
X89525166Y-83467033D01*
X90566558Y-84508426D01*
X90592709Y-84540291D01*
X90719854Y-84644636D01*
X90864913Y-84722172D01*
X91022311Y-84769918D01*
X91144981Y-84782000D01*
X91144991Y-84782000D01*
X91185999Y-84786039D01*
X91227007Y-84782000D01*
X92409596Y-84782000D01*
X92564271Y-84846068D01*
X92744911Y-84882000D01*
X92929089Y-84882000D01*
X93109729Y-84846068D01*
X93264404Y-84782000D01*
X101553596Y-84782000D01*
X101708271Y-84846068D01*
X101888911Y-84882000D01*
X102073089Y-84882000D01*
X102253729Y-84846068D01*
X102423889Y-84775586D01*
X102577028Y-84673262D01*
X102707262Y-84543028D01*
X102809586Y-84389889D01*
X102880068Y-84219729D01*
X102916000Y-84039089D01*
X102916000Y-83854911D01*
X102880068Y-83674271D01*
X102809586Y-83504111D01*
X102707262Y-83350972D01*
X102577028Y-83220738D01*
X102423889Y-83118414D01*
X102253729Y-83047932D01*
X102073089Y-83012000D01*
X101888911Y-83012000D01*
X101708271Y-83047932D01*
X101553596Y-83112000D01*
X93264404Y-83112000D01*
X93109729Y-83047932D01*
X92929089Y-83012000D01*
X92744911Y-83012000D01*
X92564271Y-83047932D01*
X92409596Y-83112000D01*
X91531868Y-83112000D01*
X90888493Y-82468625D01*
X90870023Y-82281105D01*
X90810840Y-82086006D01*
X90714734Y-81906202D01*
X90617803Y-81788092D01*
X90398622Y-81568911D01*
X91902000Y-81568911D01*
X91902000Y-81753089D01*
X91937932Y-81933729D01*
X92008414Y-82103889D01*
X92110738Y-82257028D01*
X92240972Y-82387262D01*
X92394111Y-82489586D01*
X92564271Y-82560068D01*
X92744911Y-82596000D01*
X92929089Y-82596000D01*
X93109729Y-82560068D01*
X93279889Y-82489586D01*
X93382535Y-82421000D01*
X93933678Y-82421000D01*
X93971000Y-82424676D01*
X94008322Y-82421000D01*
X94008333Y-82421000D01*
X94119986Y-82410003D01*
X94263247Y-82366546D01*
X94269917Y-82362981D01*
X94280999Y-82364072D01*
X94931001Y-82364072D01*
X95104255Y-82347008D01*
X95270851Y-82296472D01*
X95424387Y-82214405D01*
X95558962Y-82103962D01*
X95631000Y-82016184D01*
X95703038Y-82103962D01*
X95837613Y-82214405D01*
X95991149Y-82296472D01*
X96157745Y-82347008D01*
X96330999Y-82364072D01*
X96981001Y-82364072D01*
X97154255Y-82347008D01*
X97320851Y-82296472D01*
X97474387Y-82214405D01*
X97608962Y-82103962D01*
X97719405Y-81969387D01*
X97801472Y-81815851D01*
X97814053Y-81774376D01*
X97955247Y-81731546D01*
X98087276Y-81660974D01*
X98203001Y-81566001D01*
X98226803Y-81536998D01*
X98322649Y-81441153D01*
X98443729Y-81417068D01*
X98613889Y-81346586D01*
X98767028Y-81244262D01*
X98897262Y-81114028D01*
X98999586Y-80960889D01*
X99070068Y-80790729D01*
X99106000Y-80610089D01*
X99106000Y-80425911D01*
X99070068Y-80245271D01*
X98999586Y-80075111D01*
X98897262Y-79921972D01*
X98767028Y-79791738D01*
X98613889Y-79689414D01*
X98443729Y-79618932D01*
X98263089Y-79583000D01*
X98078911Y-79583000D01*
X97898271Y-79618932D01*
X97728111Y-79689414D01*
X97574972Y-79791738D01*
X97504446Y-79862264D01*
X97474387Y-79837595D01*
X97320851Y-79755528D01*
X97154255Y-79704992D01*
X96981001Y-79687928D01*
X96330999Y-79687928D01*
X96157745Y-79704992D01*
X95991149Y-79755528D01*
X95837613Y-79837595D01*
X95703038Y-79948038D01*
X95631000Y-80035816D01*
X95558962Y-79948038D01*
X95424387Y-79837595D01*
X95270851Y-79755528D01*
X95104255Y-79704992D01*
X94931001Y-79687928D01*
X94280999Y-79687928D01*
X94107745Y-79704992D01*
X93941149Y-79755528D01*
X93787613Y-79837595D01*
X93653038Y-79948038D01*
X93542595Y-80082613D01*
X93460528Y-80236149D01*
X93409992Y-80402745D01*
X93392928Y-80575999D01*
X93392928Y-80901000D01*
X93382535Y-80901000D01*
X93279889Y-80832414D01*
X93109729Y-80761932D01*
X92929089Y-80726000D01*
X92744911Y-80726000D01*
X92564271Y-80761932D01*
X92394111Y-80832414D01*
X92240972Y-80934738D01*
X92110738Y-81064972D01*
X92008414Y-81218111D01*
X91937932Y-81388271D01*
X91902000Y-81568911D01*
X90398622Y-81568911D01*
X85998000Y-77168290D01*
X85998000Y-66206000D01*
X86649928Y-66206000D01*
X86649928Y-67906000D01*
X86662188Y-68030482D01*
X86698498Y-68150180D01*
X86757463Y-68260494D01*
X86836815Y-68357185D01*
X86933506Y-68436537D01*
X87043820Y-68495502D01*
X87163518Y-68531812D01*
X87288000Y-68544072D01*
X88988000Y-68544072D01*
X89112482Y-68531812D01*
X89232180Y-68495502D01*
X89342494Y-68436537D01*
X89410001Y-68381136D01*
X89410000Y-73957478D01*
X89406324Y-73994800D01*
X89410000Y-74032122D01*
X89410000Y-74032132D01*
X89420997Y-74143785D01*
X89464454Y-74287046D01*
X89535026Y-74419076D01*
X89574871Y-74467626D01*
X89629999Y-74534801D01*
X89659003Y-74558604D01*
X90598098Y-75497699D01*
X90552463Y-75553306D01*
X90493498Y-75663620D01*
X90457188Y-75783318D01*
X90444928Y-75907800D01*
X90444928Y-76907800D01*
X90457188Y-77032282D01*
X90493498Y-77151980D01*
X90552463Y-77262294D01*
X90631815Y-77358985D01*
X90728506Y-77438337D01*
X90838820Y-77497302D01*
X90958518Y-77533612D01*
X91083000Y-77545872D01*
X93824114Y-77545872D01*
X93807000Y-77631911D01*
X93807000Y-77816089D01*
X93842932Y-77996729D01*
X93913414Y-78166889D01*
X94015738Y-78320028D01*
X94145972Y-78450262D01*
X94299111Y-78552586D01*
X94469271Y-78623068D01*
X94649911Y-78659000D01*
X94834089Y-78659000D01*
X95014729Y-78623068D01*
X95184889Y-78552586D01*
X95287535Y-78484000D01*
X96472136Y-78484000D01*
X96501271Y-78496068D01*
X96681911Y-78532000D01*
X96866089Y-78532000D01*
X97046729Y-78496068D01*
X97216889Y-78425586D01*
X97370028Y-78323262D01*
X97500262Y-78193028D01*
X97602586Y-78039889D01*
X97673068Y-77869729D01*
X97709000Y-77689089D01*
X97709000Y-77545174D01*
X98647250Y-77542800D01*
X98806000Y-77384050D01*
X98806000Y-76534800D01*
X99060000Y-76534800D01*
X99060000Y-77384050D01*
X99218750Y-77542800D01*
X100433000Y-77545872D01*
X100557482Y-77533612D01*
X100677180Y-77497302D01*
X100787494Y-77438337D01*
X100884185Y-77358985D01*
X100963537Y-77262294D01*
X101022502Y-77151980D01*
X101058812Y-77032282D01*
X101071072Y-76907800D01*
X101068000Y-76693550D01*
X100909250Y-76534800D01*
X99060000Y-76534800D01*
X98806000Y-76534800D01*
X96956750Y-76534800D01*
X96829550Y-76662000D01*
X96681911Y-76662000D01*
X96501271Y-76697932D01*
X96331111Y-76768414D01*
X96177972Y-76870738D01*
X96084710Y-76964000D01*
X95287535Y-76964000D01*
X95184889Y-76895414D01*
X95014729Y-76824932D01*
X94834089Y-76789000D01*
X94721072Y-76789000D01*
X94721072Y-75907800D01*
X96794928Y-75907800D01*
X96798000Y-76122050D01*
X96956750Y-76280800D01*
X98806000Y-76280800D01*
X98806000Y-75431550D01*
X99060000Y-75431550D01*
X99060000Y-76280800D01*
X100909250Y-76280800D01*
X101068000Y-76122050D01*
X101071072Y-75907800D01*
X101058812Y-75783318D01*
X101022502Y-75663620D01*
X100963537Y-75553306D01*
X100884185Y-75456615D01*
X100787494Y-75377263D01*
X100677180Y-75318298D01*
X100557482Y-75281988D01*
X100433000Y-75269728D01*
X99218750Y-75272800D01*
X99060000Y-75431550D01*
X98806000Y-75431550D01*
X98647250Y-75272800D01*
X97433000Y-75269728D01*
X97308518Y-75281988D01*
X97188820Y-75318298D01*
X97078506Y-75377263D01*
X96981815Y-75456615D01*
X96902463Y-75553306D01*
X96843498Y-75663620D01*
X96807188Y-75783318D01*
X96794928Y-75907800D01*
X94721072Y-75907800D01*
X94708812Y-75783318D01*
X94672502Y-75663620D01*
X94613537Y-75553306D01*
X94534185Y-75456615D01*
X94437494Y-75377263D01*
X94327180Y-75318298D01*
X94207482Y-75281988D01*
X94083000Y-75269728D01*
X92519730Y-75269728D01*
X90930000Y-73679999D01*
X90930000Y-70524961D01*
X90958518Y-70533612D01*
X91083000Y-70545872D01*
X94083000Y-70545872D01*
X94207482Y-70533612D01*
X94327180Y-70497302D01*
X94437494Y-70438337D01*
X94534185Y-70358985D01*
X94613537Y-70262294D01*
X94672502Y-70151980D01*
X94708812Y-70032282D01*
X94721072Y-69907800D01*
X96794928Y-69907800D01*
X96807188Y-70032282D01*
X96843498Y-70151980D01*
X96902463Y-70262294D01*
X96981815Y-70358985D01*
X97078506Y-70438337D01*
X97188820Y-70497302D01*
X97308518Y-70533612D01*
X97433000Y-70545872D01*
X98647250Y-70542800D01*
X98806000Y-70384050D01*
X98806000Y-69534800D01*
X99060000Y-69534800D01*
X99060000Y-70384050D01*
X99218750Y-70542800D01*
X100433000Y-70545872D01*
X100557482Y-70533612D01*
X100677180Y-70497302D01*
X100787494Y-70438337D01*
X100884185Y-70358985D01*
X100963537Y-70262294D01*
X101022502Y-70151980D01*
X101058812Y-70032282D01*
X101071072Y-69907800D01*
X101068000Y-69693550D01*
X100909250Y-69534800D01*
X99060000Y-69534800D01*
X98806000Y-69534800D01*
X96956750Y-69534800D01*
X96798000Y-69693550D01*
X96794928Y-69907800D01*
X94721072Y-69907800D01*
X94721072Y-69675729D01*
X95380003Y-69016799D01*
X95409001Y-68993001D01*
X95478923Y-68907800D01*
X96794928Y-68907800D01*
X96798000Y-69122050D01*
X96956750Y-69280800D01*
X98806000Y-69280800D01*
X98806000Y-68431550D01*
X99060000Y-68431550D01*
X99060000Y-69280800D01*
X100909250Y-69280800D01*
X101068000Y-69122050D01*
X101071072Y-68907800D01*
X101058812Y-68783318D01*
X101022502Y-68663620D01*
X100963537Y-68553306D01*
X100884185Y-68456615D01*
X100787494Y-68377263D01*
X100677180Y-68318298D01*
X100557482Y-68281988D01*
X100433000Y-68269728D01*
X99218750Y-68272800D01*
X99060000Y-68431550D01*
X98806000Y-68431550D01*
X98647250Y-68272800D01*
X97433000Y-68269728D01*
X97308518Y-68281988D01*
X97188820Y-68318298D01*
X97078506Y-68377263D01*
X96981815Y-68456615D01*
X96902463Y-68553306D01*
X96843498Y-68663620D01*
X96807188Y-68783318D01*
X96794928Y-68907800D01*
X95478923Y-68907800D01*
X95487953Y-68896798D01*
X95503974Y-68877277D01*
X95574546Y-68745247D01*
X95583094Y-68717068D01*
X95618003Y-68601986D01*
X95629000Y-68490333D01*
X95629000Y-68490324D01*
X95632676Y-68453001D01*
X95629000Y-68415678D01*
X95629000Y-68363535D01*
X95697586Y-68260889D01*
X95768068Y-68090729D01*
X95804000Y-67910089D01*
X95804000Y-67725911D01*
X95768068Y-67545271D01*
X95704141Y-67390936D01*
X95793738Y-67525028D01*
X95923972Y-67655262D01*
X96077111Y-67757586D01*
X96247271Y-67828068D01*
X96427911Y-67864000D01*
X96612089Y-67864000D01*
X96792729Y-67828068D01*
X96962889Y-67757586D01*
X97116028Y-67655262D01*
X97246262Y-67525028D01*
X97348586Y-67371889D01*
X97419068Y-67201729D01*
X97455000Y-67021089D01*
X97455000Y-66836911D01*
X97419068Y-66656271D01*
X97348586Y-66486111D01*
X97280000Y-66383465D01*
X97280000Y-66206000D01*
X101889928Y-66206000D01*
X101889928Y-67906000D01*
X101902188Y-68030482D01*
X101938498Y-68150180D01*
X101997463Y-68260494D01*
X102076815Y-68357185D01*
X102173506Y-68436537D01*
X102283820Y-68495502D01*
X102403518Y-68531812D01*
X102528000Y-68544072D01*
X104228000Y-68544072D01*
X104352482Y-68531812D01*
X104472180Y-68495502D01*
X104582494Y-68436537D01*
X104679185Y-68357185D01*
X104758537Y-68260494D01*
X104817502Y-68150180D01*
X104853812Y-68030482D01*
X104866072Y-67906000D01*
X104866072Y-66206000D01*
X104853812Y-66081518D01*
X104817502Y-65961820D01*
X104758537Y-65851506D01*
X104679185Y-65754815D01*
X104582494Y-65675463D01*
X104472180Y-65616498D01*
X104391534Y-65592034D01*
X104475588Y-65516269D01*
X104649641Y-65282920D01*
X104774825Y-65020099D01*
X104819476Y-64872890D01*
X104698155Y-64643000D01*
X103505000Y-64643000D01*
X103505000Y-64663000D01*
X103251000Y-64663000D01*
X103251000Y-64643000D01*
X102057845Y-64643000D01*
X101936524Y-64872890D01*
X101981175Y-65020099D01*
X102106359Y-65282920D01*
X102280412Y-65516269D01*
X102364466Y-65592034D01*
X102283820Y-65616498D01*
X102173506Y-65675463D01*
X102076815Y-65754815D01*
X101997463Y-65851506D01*
X101938498Y-65961820D01*
X101902188Y-66081518D01*
X101889928Y-66206000D01*
X97280000Y-66206000D01*
X97280000Y-64159110D01*
X101936524Y-64159110D01*
X102057845Y-64389000D01*
X103251000Y-64389000D01*
X103251000Y-63195186D01*
X103505000Y-63195186D01*
X103505000Y-64389000D01*
X104698155Y-64389000D01*
X104819476Y-64159110D01*
X104774825Y-64011901D01*
X104649641Y-63749080D01*
X104475588Y-63515731D01*
X104259355Y-63320822D01*
X104009252Y-63171843D01*
X103734891Y-63074519D01*
X103505000Y-63195186D01*
X103251000Y-63195186D01*
X103021109Y-63074519D01*
X102746748Y-63171843D01*
X102496645Y-63320822D01*
X102280412Y-63515731D01*
X102106359Y-63749080D01*
X101981175Y-64011901D01*
X101936524Y-64159110D01*
X97280000Y-64159110D01*
X97280000Y-63664322D01*
X97283676Y-63626999D01*
X97280000Y-63589676D01*
X97280000Y-63589667D01*
X97273431Y-63522968D01*
X97308518Y-63533612D01*
X97433000Y-63545872D01*
X98647250Y-63542800D01*
X98806000Y-63384050D01*
X98806000Y-62534800D01*
X99060000Y-62534800D01*
X99060000Y-63384050D01*
X99218750Y-63542800D01*
X100433000Y-63545872D01*
X100557482Y-63533612D01*
X100677180Y-63497302D01*
X100787494Y-63438337D01*
X100884185Y-63358985D01*
X100963537Y-63262294D01*
X101022502Y-63151980D01*
X101058812Y-63032282D01*
X101071072Y-62907800D01*
X101068000Y-62693550D01*
X100909250Y-62534800D01*
X99060000Y-62534800D01*
X98806000Y-62534800D01*
X96956750Y-62534800D01*
X96798000Y-62693550D01*
X96796068Y-62828267D01*
X95875601Y-61907800D01*
X96794928Y-61907800D01*
X96798000Y-62122050D01*
X96956750Y-62280800D01*
X98806000Y-62280800D01*
X98806000Y-61431550D01*
X99060000Y-61431550D01*
X99060000Y-62280800D01*
X100909250Y-62280800D01*
X101068000Y-62122050D01*
X101071072Y-61907800D01*
X101058812Y-61783318D01*
X101022502Y-61663620D01*
X100963537Y-61553306D01*
X100884185Y-61456615D01*
X100787494Y-61377263D01*
X100677180Y-61318298D01*
X100557482Y-61281988D01*
X100433000Y-61269728D01*
X99218750Y-61272800D01*
X99060000Y-61431550D01*
X98806000Y-61431550D01*
X98647250Y-61272800D01*
X97433000Y-61269728D01*
X97308518Y-61281988D01*
X97188820Y-61318298D01*
X97078506Y-61377263D01*
X96981815Y-61456615D01*
X96902463Y-61553306D01*
X96843498Y-61663620D01*
X96807188Y-61783318D01*
X96794928Y-61907800D01*
X95875601Y-61907800D01*
X95864604Y-61896803D01*
X95840801Y-61867799D01*
X95725076Y-61772826D01*
X95593047Y-61702254D01*
X95449786Y-61658797D01*
X95338133Y-61647800D01*
X95338122Y-61647800D01*
X95300800Y-61644124D01*
X95263478Y-61647800D01*
X94664046Y-61647800D01*
X94613537Y-61553306D01*
X94534185Y-61456615D01*
X94437494Y-61377263D01*
X94327180Y-61318298D01*
X94207482Y-61281988D01*
X94083000Y-61269728D01*
X91083000Y-61269728D01*
X90958518Y-61281988D01*
X90838820Y-61318298D01*
X90728506Y-61377263D01*
X90631815Y-61456615D01*
X90552463Y-61553306D01*
X90493498Y-61663620D01*
X90457188Y-61783318D01*
X90444928Y-61907800D01*
X90444928Y-62907800D01*
X90457188Y-63032282D01*
X90493498Y-63151980D01*
X90552463Y-63262294D01*
X90631815Y-63358985D01*
X90728506Y-63438337D01*
X90838820Y-63497302D01*
X90958518Y-63533612D01*
X91083000Y-63545872D01*
X94083000Y-63545872D01*
X94207482Y-63533612D01*
X94327180Y-63497302D01*
X94437494Y-63438337D01*
X94534185Y-63358985D01*
X94613537Y-63262294D01*
X94664046Y-63167800D01*
X94985999Y-63167800D01*
X95760000Y-63941802D01*
X95760001Y-66383463D01*
X95691414Y-66486111D01*
X95620932Y-66656271D01*
X95585000Y-66836911D01*
X95585000Y-67021089D01*
X95620932Y-67201729D01*
X95684859Y-67356064D01*
X95595262Y-67221972D01*
X95465028Y-67091738D01*
X95311889Y-66989414D01*
X95141729Y-66918932D01*
X94961089Y-66883000D01*
X94776911Y-66883000D01*
X94596271Y-66918932D01*
X94426111Y-66989414D01*
X94272972Y-67091738D01*
X94142738Y-67221972D01*
X94040414Y-67375111D01*
X93969932Y-67545271D01*
X93934000Y-67725911D01*
X93934000Y-67910089D01*
X93969932Y-68090729D01*
X94024567Y-68222631D01*
X93977470Y-68269728D01*
X91083000Y-68269728D01*
X90958518Y-68281988D01*
X90930000Y-68290639D01*
X90930000Y-66989801D01*
X91591649Y-66328153D01*
X91712729Y-66304068D01*
X91882889Y-66233586D01*
X92036028Y-66131262D01*
X92166262Y-66001028D01*
X92268586Y-65847889D01*
X92339068Y-65677729D01*
X92375000Y-65497089D01*
X92375000Y-65312911D01*
X92339068Y-65132271D01*
X92268586Y-64962111D01*
X92166262Y-64808972D01*
X92036028Y-64678738D01*
X91882889Y-64576414D01*
X91712729Y-64505932D01*
X91532089Y-64470000D01*
X91347911Y-64470000D01*
X91167271Y-64505932D01*
X90997111Y-64576414D01*
X90843972Y-64678738D01*
X90713738Y-64808972D01*
X90611414Y-64962111D01*
X90540932Y-65132271D01*
X90516847Y-65253351D01*
X89658998Y-66111201D01*
X89630000Y-66134999D01*
X89620249Y-66146880D01*
X89613812Y-66081518D01*
X89577502Y-65961820D01*
X89518537Y-65851506D01*
X89439185Y-65754815D01*
X89342494Y-65675463D01*
X89232180Y-65616498D01*
X89151534Y-65592034D01*
X89235588Y-65516269D01*
X89409641Y-65282920D01*
X89534825Y-65020099D01*
X89579476Y-64872890D01*
X89458155Y-64643000D01*
X88265000Y-64643000D01*
X88265000Y-64663000D01*
X88011000Y-64663000D01*
X88011000Y-64643000D01*
X86817845Y-64643000D01*
X86696524Y-64872890D01*
X86741175Y-65020099D01*
X86866359Y-65282920D01*
X87040412Y-65516269D01*
X87124466Y-65592034D01*
X87043820Y-65616498D01*
X86933506Y-65675463D01*
X86836815Y-65754815D01*
X86757463Y-65851506D01*
X86698498Y-65961820D01*
X86662188Y-66081518D01*
X86649928Y-66206000D01*
X85998000Y-66206000D01*
X85998000Y-64159110D01*
X86696524Y-64159110D01*
X86817845Y-64389000D01*
X88011000Y-64389000D01*
X88011000Y-63195186D01*
X88265000Y-63195186D01*
X88265000Y-64389000D01*
X89458155Y-64389000D01*
X89579476Y-64159110D01*
X89534825Y-64011901D01*
X89409641Y-63749080D01*
X89235588Y-63515731D01*
X89019355Y-63320822D01*
X88769252Y-63171843D01*
X88494891Y-63074519D01*
X88265000Y-63195186D01*
X88011000Y-63195186D01*
X87781109Y-63074519D01*
X87506748Y-63171843D01*
X87256645Y-63320822D01*
X87040412Y-63515731D01*
X86866359Y-63749080D01*
X86741175Y-64011901D01*
X86696524Y-64159110D01*
X85998000Y-64159110D01*
X85998000Y-59708867D01*
X87213869Y-58493000D01*
X91588715Y-58493000D01*
X91711744Y-58575205D01*
X91900102Y-58653226D01*
X92100061Y-58693000D01*
X92303939Y-58693000D01*
X92503898Y-58653226D01*
X92692256Y-58575205D01*
X92861774Y-58461937D01*
X93005937Y-58317774D01*
X93119205Y-58148256D01*
X93197226Y-57959898D01*
X93237000Y-57759939D01*
X93237000Y-57556061D01*
X93197226Y-57356102D01*
X93119205Y-57167744D01*
X93005937Y-56998226D01*
X92861774Y-56854063D01*
X92692256Y-56740795D01*
X92503898Y-56662774D01*
X92419596Y-56646005D01*
X92519730Y-56545872D01*
X94083000Y-56545872D01*
X94207482Y-56533612D01*
X94327180Y-56497302D01*
X94437494Y-56438337D01*
X94534185Y-56358985D01*
X94613537Y-56262294D01*
X94672502Y-56151980D01*
X94708812Y-56032282D01*
X94712201Y-55997868D01*
X94923001Y-56208667D01*
X94923000Y-56849595D01*
X94858932Y-57004271D01*
X94823000Y-57184911D01*
X94823000Y-57369089D01*
X94858932Y-57549729D01*
X94929414Y-57719889D01*
X95031738Y-57873028D01*
X95161972Y-58003262D01*
X95315111Y-58105586D01*
X95485271Y-58176068D01*
X95665911Y-58212000D01*
X95850089Y-58212000D01*
X96030729Y-58176068D01*
X96200889Y-58105586D01*
X96354028Y-58003262D01*
X96484262Y-57873028D01*
X96586586Y-57719889D01*
X96657068Y-57549729D01*
X96693000Y-57369089D01*
X96693000Y-57184911D01*
X96657068Y-57004271D01*
X96593000Y-56849596D01*
X96593000Y-55907800D01*
X96794928Y-55907800D01*
X96807188Y-56032282D01*
X96843498Y-56151980D01*
X96902463Y-56262294D01*
X96981815Y-56358985D01*
X97078506Y-56438337D01*
X97188820Y-56497302D01*
X97308518Y-56533612D01*
X97433000Y-56545872D01*
X98647250Y-56542800D01*
X98806000Y-56384050D01*
X98806000Y-55534800D01*
X99060000Y-55534800D01*
X99060000Y-56384050D01*
X99218750Y-56542800D01*
X100433000Y-56545872D01*
X100557482Y-56533612D01*
X100677180Y-56497302D01*
X100787494Y-56438337D01*
X100884185Y-56358985D01*
X100963537Y-56262294D01*
X101022502Y-56151980D01*
X101058812Y-56032282D01*
X101071072Y-55907800D01*
X101068000Y-55693550D01*
X100909250Y-55534800D01*
X99060000Y-55534800D01*
X98806000Y-55534800D01*
X96956750Y-55534800D01*
X96798000Y-55693550D01*
X96794928Y-55907800D01*
X96593000Y-55907800D01*
X96593000Y-55903816D01*
X96597040Y-55862798D01*
X96580918Y-55699110D01*
X96579232Y-55693550D01*
X96533172Y-55541711D01*
X96455636Y-55396652D01*
X96351291Y-55269507D01*
X96319432Y-55243361D01*
X95983871Y-54907800D01*
X96794928Y-54907800D01*
X96798000Y-55122050D01*
X96956750Y-55280800D01*
X98806000Y-55280800D01*
X98806000Y-54431550D01*
X99060000Y-54431550D01*
X99060000Y-55280800D01*
X100909250Y-55280800D01*
X101068000Y-55122050D01*
X101071072Y-54907800D01*
X101058812Y-54783318D01*
X101022502Y-54663620D01*
X100963537Y-54553306D01*
X100884185Y-54456615D01*
X100787494Y-54377263D01*
X100677180Y-54318298D01*
X100557482Y-54281988D01*
X100433000Y-54269728D01*
X99218750Y-54272800D01*
X99060000Y-54431550D01*
X98806000Y-54431550D01*
X98647250Y-54272800D01*
X97433000Y-54269728D01*
X97308518Y-54281988D01*
X97188820Y-54318298D01*
X97078506Y-54377263D01*
X96981815Y-54456615D01*
X96902463Y-54553306D01*
X96843498Y-54663620D01*
X96807188Y-54783318D01*
X96794928Y-54907800D01*
X95983871Y-54907800D01*
X94943070Y-53867000D01*
X101970546Y-53867000D01*
X101988498Y-53926180D01*
X102047463Y-54036494D01*
X102126815Y-54133185D01*
X102223506Y-54212537D01*
X102333820Y-54271502D01*
X102406380Y-54293513D01*
X102274525Y-54425368D01*
X102112010Y-54668589D01*
X102000068Y-54938842D01*
X101943000Y-55225740D01*
X101943000Y-55518260D01*
X102000068Y-55805158D01*
X102112010Y-56075411D01*
X102274525Y-56318632D01*
X102481368Y-56525475D01*
X102724589Y-56687990D01*
X102994842Y-56799932D01*
X103281740Y-56857000D01*
X103574260Y-56857000D01*
X103861158Y-56799932D01*
X104131411Y-56687990D01*
X104341790Y-56547419D01*
X105899000Y-58104630D01*
X105899001Y-71834288D01*
X105385229Y-72348061D01*
X105385226Y-72348063D01*
X105241063Y-72492226D01*
X105212671Y-72534717D01*
X105180266Y-72574203D01*
X105156187Y-72619252D01*
X105127795Y-72661744D01*
X105108236Y-72708964D01*
X105084160Y-72754007D01*
X105069335Y-72802878D01*
X105049774Y-72850102D01*
X105039803Y-72900232D01*
X105024977Y-72949105D01*
X105019971Y-72999933D01*
X105010000Y-73050061D01*
X105010000Y-73101172D01*
X105004994Y-73152000D01*
X105010000Y-73202828D01*
X105010000Y-73253939D01*
X105019971Y-73304067D01*
X105024977Y-73354895D01*
X105039803Y-73403768D01*
X105049774Y-73453898D01*
X105069335Y-73501122D01*
X105084160Y-73549993D01*
X105108236Y-73595036D01*
X105127795Y-73642256D01*
X105156187Y-73684748D01*
X105180266Y-73729797D01*
X105212672Y-73769284D01*
X105241063Y-73811774D01*
X105277197Y-73847908D01*
X105309604Y-73887396D01*
X105349092Y-73919803D01*
X105385226Y-73955937D01*
X105427716Y-73984328D01*
X105467203Y-74016734D01*
X105512252Y-74040813D01*
X105554744Y-74069205D01*
X105601964Y-74088764D01*
X105647007Y-74112840D01*
X105695878Y-74127665D01*
X105743102Y-74147226D01*
X105793232Y-74157197D01*
X105842105Y-74172023D01*
X105892933Y-74177029D01*
X105943061Y-74187000D01*
X105994172Y-74187000D01*
X106045000Y-74192006D01*
X106095828Y-74187000D01*
X106146939Y-74187000D01*
X106197067Y-74177029D01*
X106247895Y-74172023D01*
X106296768Y-74157197D01*
X106346898Y-74147226D01*
X106394122Y-74127665D01*
X106442993Y-74112840D01*
X106488036Y-74088764D01*
X106535256Y-74069205D01*
X106577748Y-74040813D01*
X106622797Y-74016734D01*
X106662283Y-73984329D01*
X106704774Y-73955937D01*
X106848937Y-73811774D01*
X106848939Y-73811771D01*
X107629908Y-73030803D01*
X107669396Y-72998396D01*
X107791098Y-72850102D01*
X107798734Y-72840798D01*
X107850104Y-72744691D01*
X107894841Y-72660993D01*
X107954024Y-72465895D01*
X107969000Y-72313838D01*
X107969000Y-72313835D01*
X107974007Y-72263000D01*
X107969000Y-72212165D01*
X107969000Y-57726746D01*
X107974006Y-57675918D01*
X107969000Y-57625090D01*
X107969000Y-57625081D01*
X107954024Y-57473024D01*
X107894841Y-57277926D01*
X107798734Y-57098122D01*
X107669396Y-56940523D01*
X107629908Y-56908116D01*
X105397888Y-54676097D01*
X105365477Y-54636604D01*
X105207878Y-54507266D01*
X105028074Y-54411159D01*
X104832976Y-54351976D01*
X104680919Y-54337000D01*
X104680909Y-54337000D01*
X104630081Y-54331994D01*
X104579253Y-54337000D01*
X104493107Y-54337000D01*
X104449620Y-54293513D01*
X104522180Y-54271502D01*
X104632494Y-54212537D01*
X104729185Y-54133185D01*
X104808537Y-54036494D01*
X104867502Y-53926180D01*
X104903812Y-53806482D01*
X104916072Y-53682000D01*
X104916072Y-51982000D01*
X104903812Y-51857518D01*
X104867502Y-51737820D01*
X104808537Y-51627506D01*
X104729185Y-51530815D01*
X104632494Y-51451463D01*
X104522180Y-51392498D01*
X104402482Y-51356188D01*
X104278000Y-51343928D01*
X102578000Y-51343928D01*
X102453518Y-51356188D01*
X102333820Y-51392498D01*
X102223506Y-51451463D01*
X102126815Y-51530815D01*
X102047463Y-51627506D01*
X101988498Y-51737820D01*
X101970546Y-51797000D01*
X89645454Y-51797000D01*
X89627502Y-51737820D01*
X89601512Y-51689198D01*
X94400935Y-46889775D01*
X102947830Y-46889775D01*
X103187976Y-47277018D01*
X103681877Y-47537641D01*
X104217133Y-47696901D01*
X104773174Y-47748678D01*
X105328632Y-47690981D01*
X105862161Y-47526028D01*
X106328024Y-47277018D01*
X106568170Y-46889775D01*
X104758000Y-45079605D01*
X102947830Y-46889775D01*
X94400935Y-46889775D01*
X95203908Y-46086803D01*
X95243396Y-46054396D01*
X95284623Y-46004161D01*
X95372734Y-45896798D01*
X95468840Y-45716994D01*
X95468841Y-45716993D01*
X95528024Y-45521895D01*
X95543000Y-45369838D01*
X95543000Y-45369835D01*
X95548007Y-45319000D01*
X95543000Y-45268165D01*
X95543000Y-44915174D01*
X101909322Y-44915174D01*
X101967019Y-45470632D01*
X102131972Y-46004161D01*
X102380982Y-46470024D01*
X102768225Y-46710170D01*
X104578395Y-44900000D01*
X104937605Y-44900000D01*
X106747775Y-46710170D01*
X107135018Y-46470024D01*
X107395641Y-45976123D01*
X107554901Y-45440867D01*
X107606678Y-44884826D01*
X107548981Y-44329368D01*
X107384028Y-43795839D01*
X107135018Y-43329976D01*
X106747775Y-43089830D01*
X104937605Y-44900000D01*
X104578395Y-44900000D01*
X102768225Y-43089830D01*
X102380982Y-43329976D01*
X102120359Y-43823877D01*
X101961099Y-44359133D01*
X101909322Y-44915174D01*
X95543000Y-44915174D01*
X95543000Y-42910225D01*
X102947830Y-42910225D01*
X104758000Y-44720395D01*
X106568170Y-42910225D01*
X106328024Y-42522982D01*
X105834123Y-42262359D01*
X105298867Y-42103099D01*
X104742826Y-42051322D01*
X104187368Y-42109019D01*
X103653839Y-42273972D01*
X103187976Y-42522982D01*
X102947830Y-42910225D01*
X95543000Y-42910225D01*
X95543000Y-42097454D01*
X95602180Y-42079502D01*
X95712494Y-42020537D01*
X95809185Y-41941185D01*
X95888537Y-41844494D01*
X95947502Y-41734180D01*
X95969513Y-41661620D01*
X96101368Y-41793475D01*
X96344589Y-41955990D01*
X96614842Y-42067932D01*
X96901740Y-42125000D01*
X97194260Y-42125000D01*
X97481158Y-42067932D01*
X97751411Y-41955990D01*
X97994632Y-41793475D01*
X98201475Y-41586632D01*
X98363990Y-41343411D01*
X98475932Y-41073158D01*
X98533000Y-40786260D01*
X98533000Y-40493740D01*
X98475932Y-40206842D01*
X98363990Y-39936589D01*
X98201475Y-39693368D01*
X97994632Y-39486525D01*
X97751411Y-39324010D01*
X97481158Y-39212068D01*
X97194260Y-39155000D01*
X96901740Y-39155000D01*
X96614842Y-39212068D01*
X96344589Y-39324010D01*
X96101368Y-39486525D01*
X95969513Y-39618380D01*
X95947502Y-39545820D01*
X95888537Y-39435506D01*
X95809185Y-39338815D01*
X95712494Y-39259463D01*
X95602180Y-39200498D01*
X95482482Y-39164188D01*
X95358000Y-39151928D01*
X93658000Y-39151928D01*
X93533518Y-39164188D01*
X93413820Y-39200498D01*
X93303506Y-39259463D01*
X93206815Y-39338815D01*
X93127463Y-39435506D01*
X93068498Y-39545820D01*
X93032188Y-39665518D01*
X93019928Y-39790000D01*
X93019928Y-41490000D01*
X93032188Y-41614482D01*
X93068498Y-41734180D01*
X93127463Y-41844494D01*
X93206815Y-41941185D01*
X93303506Y-42020537D01*
X93413820Y-42079502D01*
X93473001Y-42097454D01*
X93473000Y-44890289D01*
X87492093Y-50871197D01*
X87452605Y-50903604D01*
X87420198Y-50943092D01*
X87420197Y-50943093D01*
X87323266Y-51061203D01*
X87227160Y-51241007D01*
X87190061Y-51363304D01*
X87093820Y-51392498D01*
X86983506Y-51451463D01*
X86886815Y-51530815D01*
X86807463Y-51627506D01*
X86748498Y-51737820D01*
X86712188Y-51857518D01*
X86699928Y-51982000D01*
X86699928Y-52856361D01*
X84267092Y-55289198D01*
X84227605Y-55321604D01*
X84195198Y-55361092D01*
X84195197Y-55361093D01*
X84098266Y-55479203D01*
X84002160Y-55659007D01*
X83942977Y-55854105D01*
X83922994Y-56057000D01*
X83464000Y-56057000D01*
X83464000Y-46889775D01*
X84947830Y-46889775D01*
X85187976Y-47277018D01*
X85681877Y-47537641D01*
X86217133Y-47696901D01*
X86773174Y-47748678D01*
X87328632Y-47690981D01*
X87862161Y-47526028D01*
X88328024Y-47277018D01*
X88568170Y-46889775D01*
X86758000Y-45079605D01*
X84947830Y-46889775D01*
X83464000Y-46889775D01*
X83464000Y-44915174D01*
X83909322Y-44915174D01*
X83967019Y-45470632D01*
X84131972Y-46004161D01*
X84380982Y-46470024D01*
X84768225Y-46710170D01*
X86578395Y-44900000D01*
X86937605Y-44900000D01*
X88747775Y-46710170D01*
X89135018Y-46470024D01*
X89395641Y-45976123D01*
X89554901Y-45440867D01*
X89606678Y-44884826D01*
X89548981Y-44329368D01*
X89384028Y-43795839D01*
X89135018Y-43329976D01*
X88747775Y-43089830D01*
X86937605Y-44900000D01*
X86578395Y-44900000D01*
X84768225Y-43089830D01*
X84380982Y-43329976D01*
X84120359Y-43823877D01*
X83961099Y-44359133D01*
X83909322Y-44915174D01*
X83464000Y-44915174D01*
X83464000Y-42910225D01*
X84947830Y-42910225D01*
X86758000Y-44720395D01*
X88568170Y-42910225D01*
X88328024Y-42522982D01*
X87834123Y-42262359D01*
X87298867Y-42103099D01*
X86742826Y-42051322D01*
X86187368Y-42109019D01*
X85653839Y-42273972D01*
X85187976Y-42522982D01*
X84947830Y-42910225D01*
X83464000Y-42910225D01*
X83464000Y-41688279D01*
X83531933Y-40995442D01*
X83723772Y-40360040D01*
X84035373Y-39774006D01*
X84454870Y-39259653D01*
X84966275Y-38836581D01*
X85550123Y-38520896D01*
X86184170Y-38324625D01*
X86875155Y-38252000D01*
X104615721Y-38252000D01*
X105308558Y-38319933D01*
G37*
X105308558Y-38319933D02*
X105943960Y-38511772D01*
X106529994Y-38823373D01*
X107044347Y-39242870D01*
X107467419Y-39754275D01*
X107783104Y-40338123D01*
X107979375Y-40972170D01*
X108052001Y-41663164D01*
X108052000Y-87597722D01*
X107984067Y-88290558D01*
X107792228Y-88925958D01*
X107480630Y-89511991D01*
X107061130Y-90026347D01*
X106549725Y-90449419D01*
X105965878Y-90765103D01*
X105331830Y-90961375D01*
X104640845Y-91034000D01*
X100366241Y-91034000D01*
X100404511Y-90962401D01*
X100475130Y-90729601D01*
X100493000Y-90548164D01*
X100493000Y-89726835D01*
X100475130Y-89545398D01*
X100404511Y-89312599D01*
X100289833Y-89098051D01*
X100135502Y-88909998D01*
X100110861Y-88889775D01*
X102947830Y-88889775D01*
X103187976Y-89277018D01*
X103681877Y-89537641D01*
X104217133Y-89696901D01*
X104773174Y-89748678D01*
X105328632Y-89690981D01*
X105862161Y-89526028D01*
X106328024Y-89277018D01*
X106568170Y-88889775D01*
X104758000Y-87079605D01*
X102947830Y-88889775D01*
X100110861Y-88889775D01*
X99947448Y-88755667D01*
X99732900Y-88640989D01*
X99500101Y-88570370D01*
X99258000Y-88546525D01*
X99015898Y-88570370D01*
X99005965Y-88573383D01*
X99124949Y-88493881D01*
X99314381Y-88304449D01*
X99463216Y-88081701D01*
X99565736Y-87834197D01*
X99618000Y-87571448D01*
X99618000Y-87303552D01*
X99565736Y-87040803D01*
X99513699Y-86915174D01*
X101909322Y-86915174D01*
X101967019Y-87470632D01*
X102131972Y-88004161D01*
X102380982Y-88470024D01*
X102768225Y-88710170D01*
X104578395Y-86900000D01*
X104937605Y-86900000D01*
X106747775Y-88710170D01*
X107135018Y-88470024D01*
X107395641Y-87976123D01*
X107554901Y-87440867D01*
X107606678Y-86884826D01*
X107548981Y-86329368D01*
X107384028Y-85795839D01*
X107135018Y-85329976D01*
X106747775Y-85089830D01*
X104937605Y-86900000D01*
X104578395Y-86900000D01*
X102768225Y-85089830D01*
X102380982Y-85329976D01*
X102120359Y-85823877D01*
X101961099Y-86359133D01*
X101909322Y-86915174D01*
X99513699Y-86915174D01*
X99463216Y-86793299D01*
X99314381Y-86570551D01*
X99124949Y-86381119D01*
X98902201Y-86232284D01*
X98654697Y-86129764D01*
X98391948Y-86077500D01*
X98124052Y-86077500D01*
X97861303Y-86129764D01*
X97613799Y-86232284D01*
X97391051Y-86381119D01*
X97201619Y-86570551D01*
X97052784Y-86793299D01*
X96950264Y-87040803D01*
X96898000Y-87303552D01*
X96898000Y-87571448D01*
X96950264Y-87834197D01*
X97052784Y-88081701D01*
X97201619Y-88304449D01*
X97391051Y-88493881D01*
X97613799Y-88642716D01*
X97861303Y-88745236D01*
X98124052Y-88797500D01*
X98391948Y-88797500D01*
X98557768Y-88764516D01*
X98380498Y-88909998D01*
X98226167Y-89098052D01*
X98111489Y-89312600D01*
X98040870Y-89545399D01*
X98023000Y-89726836D01*
X98023000Y-90548165D01*
X98040870Y-90729602D01*
X98111489Y-90962401D01*
X98149760Y-91034000D01*
X93366241Y-91034000D01*
X93404511Y-90962401D01*
X93475130Y-90729602D01*
X93493000Y-90548165D01*
X93493000Y-89726836D01*
X93475130Y-89545399D01*
X93404511Y-89312599D01*
X93289833Y-89098051D01*
X93135502Y-88909998D01*
X92958232Y-88764516D01*
X93124052Y-88797500D01*
X93391948Y-88797500D01*
X93654697Y-88745236D01*
X93902201Y-88642716D01*
X94124949Y-88493881D01*
X94314381Y-88304449D01*
X94463216Y-88081701D01*
X94565736Y-87834197D01*
X94618000Y-87571448D01*
X94618000Y-87303552D01*
X94565736Y-87040803D01*
X94463216Y-86793299D01*
X94314381Y-86570551D01*
X94124949Y-86381119D01*
X93902201Y-86232284D01*
X93654697Y-86129764D01*
X93391948Y-86077500D01*
X93124052Y-86077500D01*
X92861303Y-86129764D01*
X92613799Y-86232284D01*
X92391051Y-86381119D01*
X92201619Y-86570551D01*
X92052784Y-86793299D01*
X91950264Y-87040803D01*
X91898000Y-87303552D01*
X91898000Y-87571448D01*
X91950264Y-87834197D01*
X92052784Y-88081701D01*
X92201619Y-88304449D01*
X92391051Y-88493881D01*
X92510035Y-88573383D01*
X92500102Y-88570370D01*
X92258000Y-88546525D01*
X92015899Y-88570370D01*
X91783100Y-88640989D01*
X91568552Y-88755667D01*
X91380499Y-88909998D01*
X91226168Y-89098051D01*
X91111489Y-89312599D01*
X91040870Y-89545398D01*
X91023000Y-89726835D01*
X91023000Y-90548164D01*
X91040870Y-90729601D01*
X91111489Y-90962400D01*
X91149760Y-91034000D01*
X86900278Y-91034000D01*
X86207442Y-90966067D01*
X85572042Y-90774228D01*
X84986009Y-90462630D01*
X84471653Y-90043130D01*
X84048581Y-89531725D01*
X83732897Y-88947878D01*
X83714911Y-88889775D01*
X84947830Y-88889775D01*
X85187976Y-89277018D01*
X85681877Y-89537641D01*
X86217133Y-89696901D01*
X86773174Y-89748678D01*
X87328632Y-89690981D01*
X87862161Y-89526028D01*
X88328024Y-89277018D01*
X88568170Y-88889775D01*
X86758000Y-87079605D01*
X84947830Y-88889775D01*
X83714911Y-88889775D01*
X83536625Y-88313830D01*
X83464000Y-87622845D01*
X83464000Y-86915174D01*
X83909322Y-86915174D01*
X83967019Y-87470632D01*
X84131972Y-88004161D01*
X84380982Y-88470024D01*
X84768225Y-88710170D01*
X86578395Y-86900000D01*
X86937605Y-86900000D01*
X88747775Y-88710170D01*
X89135018Y-88470024D01*
X89395641Y-87976123D01*
X89554901Y-87440867D01*
X89606678Y-86884826D01*
X89548981Y-86329368D01*
X89384028Y-85795839D01*
X89135018Y-85329976D01*
X88747775Y-85089830D01*
X86937605Y-86900000D01*
X86578395Y-86900000D01*
X84768225Y-85089830D01*
X84380982Y-85329976D01*
X84120359Y-85823877D01*
X83961099Y-86359133D01*
X83909322Y-86915174D01*
X83464000Y-86915174D01*
X83464000Y-84910225D01*
X84947830Y-84910225D01*
X86758000Y-86720395D01*
X88568170Y-84910225D01*
X102947830Y-84910225D01*
X104758000Y-86720395D01*
X106568170Y-84910225D01*
X106328024Y-84522982D01*
X105834123Y-84262359D01*
X105298867Y-84103099D01*
X104742826Y-84051322D01*
X104187368Y-84109019D01*
X103653839Y-84273972D01*
X103187976Y-84522982D01*
X102947830Y-84910225D01*
X88568170Y-84910225D01*
X88328024Y-84522982D01*
X87834123Y-84262359D01*
X87298867Y-84103099D01*
X86742826Y-84051322D01*
X86187368Y-84109019D01*
X85653839Y-84273972D01*
X85187976Y-84522982D01*
X84947830Y-84910225D01*
X83464000Y-84910225D01*
X83464000Y-56057000D01*
X83922994Y-56057000D01*
X83928001Y-56107838D01*
X83928000Y-61391837D01*
X83928001Y-61391847D01*
X83928000Y-77546172D01*
X83922994Y-77597000D01*
X83928000Y-77647828D01*
X83928000Y-77647837D01*
X83942976Y-77799894D01*
X84002159Y-77994992D01*
X84098266Y-78174797D01*
X84227604Y-78332396D01*
X84267097Y-78364807D01*
X89154092Y-83251803D01*
X89272202Y-83348734D01*
X89452006Y-83444840D01*
X89525166Y-83467033D01*
X90566558Y-84508426D01*
X90592709Y-84540291D01*
X90719854Y-84644636D01*
X90864913Y-84722172D01*
X91022311Y-84769918D01*
X91144981Y-84782000D01*
X91144991Y-84782000D01*
X91185999Y-84786039D01*
X91227007Y-84782000D01*
X92409596Y-84782000D01*
X92564271Y-84846068D01*
X92744911Y-84882000D01*
X92929089Y-84882000D01*
X93109729Y-84846068D01*
X93264404Y-84782000D01*
X101553596Y-84782000D01*
X101708271Y-84846068D01*
X101888911Y-84882000D01*
X102073089Y-84882000D01*
X102253729Y-84846068D01*
X102423889Y-84775586D01*
X102577028Y-84673262D01*
X102707262Y-84543028D01*
X102809586Y-84389889D01*
X102880068Y-84219729D01*
X102916000Y-84039089D01*
X102916000Y-83854911D01*
X102880068Y-83674271D01*
X102809586Y-83504111D01*
X102707262Y-83350972D01*
X102577028Y-83220738D01*
X102423889Y-83118414D01*
X102253729Y-83047932D01*
X102073089Y-83012000D01*
X101888911Y-83012000D01*
X101708271Y-83047932D01*
X101553596Y-83112000D01*
X93264404Y-83112000D01*
X93109729Y-83047932D01*
X92929089Y-83012000D01*
X92744911Y-83012000D01*
X92564271Y-83047932D01*
X92409596Y-83112000D01*
X91531868Y-83112000D01*
X90888493Y-82468625D01*
X90870023Y-82281105D01*
X90810840Y-82086006D01*
X90714734Y-81906202D01*
X90617803Y-81788092D01*
X90398622Y-81568911D01*
X91902000Y-81568911D01*
X91902000Y-81753089D01*
X91937932Y-81933729D01*
X92008414Y-82103889D01*
X92110738Y-82257028D01*
X92240972Y-82387262D01*
X92394111Y-82489586D01*
X92564271Y-82560068D01*
X92744911Y-82596000D01*
X92929089Y-82596000D01*
X93109729Y-82560068D01*
X93279889Y-82489586D01*
X93382535Y-82421000D01*
X93933678Y-82421000D01*
X93971000Y-82424676D01*
X94008322Y-82421000D01*
X94008333Y-82421000D01*
X94119986Y-82410003D01*
X94263247Y-82366546D01*
X94269917Y-82362981D01*
X94280999Y-82364072D01*
X94931001Y-82364072D01*
X95104255Y-82347008D01*
X95270851Y-82296472D01*
X95424387Y-82214405D01*
X95558962Y-82103962D01*
X95631000Y-82016184D01*
X95703038Y-82103962D01*
X95837613Y-82214405D01*
X95991149Y-82296472D01*
X96157745Y-82347008D01*
X96330999Y-82364072D01*
X96981001Y-82364072D01*
X97154255Y-82347008D01*
X97320851Y-82296472D01*
X97474387Y-82214405D01*
X97608962Y-82103962D01*
X97719405Y-81969387D01*
X97801472Y-81815851D01*
X97814053Y-81774376D01*
X97955247Y-81731546D01*
X98087276Y-81660974D01*
X98203001Y-81566001D01*
X98226803Y-81536998D01*
X98322649Y-81441153D01*
X98443729Y-81417068D01*
X98613889Y-81346586D01*
X98767028Y-81244262D01*
X98897262Y-81114028D01*
X98999586Y-80960889D01*
X99070068Y-80790729D01*
X99106000Y-80610089D01*
X99106000Y-80425911D01*
X99070068Y-80245271D01*
X98999586Y-80075111D01*
X98897262Y-79921972D01*
X98767028Y-79791738D01*
X98613889Y-79689414D01*
X98443729Y-79618932D01*
X98263089Y-79583000D01*
X98078911Y-79583000D01*
X97898271Y-79618932D01*
X97728111Y-79689414D01*
X97574972Y-79791738D01*
X97504446Y-79862264D01*
X97474387Y-79837595D01*
X97320851Y-79755528D01*
X97154255Y-79704992D01*
X96981001Y-79687928D01*
X96330999Y-79687928D01*
X96157745Y-79704992D01*
X95991149Y-79755528D01*
X95837613Y-79837595D01*
X95703038Y-79948038D01*
X95631000Y-80035816D01*
X95558962Y-79948038D01*
X95424387Y-79837595D01*
X95270851Y-79755528D01*
X95104255Y-79704992D01*
X94931001Y-79687928D01*
X94280999Y-79687928D01*
X94107745Y-79704992D01*
X93941149Y-79755528D01*
X93787613Y-79837595D01*
X93653038Y-79948038D01*
X93542595Y-80082613D01*
X93460528Y-80236149D01*
X93409992Y-80402745D01*
X93392928Y-80575999D01*
X93392928Y-80901000D01*
X93382535Y-80901000D01*
X93279889Y-80832414D01*
X93109729Y-80761932D01*
X92929089Y-80726000D01*
X92744911Y-80726000D01*
X92564271Y-80761932D01*
X92394111Y-80832414D01*
X92240972Y-80934738D01*
X92110738Y-81064972D01*
X92008414Y-81218111D01*
X91937932Y-81388271D01*
X91902000Y-81568911D01*
X90398622Y-81568911D01*
X85998000Y-77168290D01*
X85998000Y-66206000D01*
X86649928Y-66206000D01*
X86649928Y-67906000D01*
X86662188Y-68030482D01*
X86698498Y-68150180D01*
X86757463Y-68260494D01*
X86836815Y-68357185D01*
X86933506Y-68436537D01*
X87043820Y-68495502D01*
X87163518Y-68531812D01*
X87288000Y-68544072D01*
X88988000Y-68544072D01*
X89112482Y-68531812D01*
X89232180Y-68495502D01*
X89342494Y-68436537D01*
X89410001Y-68381136D01*
X89410000Y-73957478D01*
X89406324Y-73994800D01*
X89410000Y-74032122D01*
X89410000Y-74032132D01*
X89420997Y-74143785D01*
X89464454Y-74287046D01*
X89535026Y-74419076D01*
X89574871Y-74467626D01*
X89629999Y-74534801D01*
X89659003Y-74558604D01*
X90598098Y-75497699D01*
X90552463Y-75553306D01*
X90493498Y-75663620D01*
X90457188Y-75783318D01*
X90444928Y-75907800D01*
X90444928Y-76907800D01*
X90457188Y-77032282D01*
X90493498Y-77151980D01*
X90552463Y-77262294D01*
X90631815Y-77358985D01*
X90728506Y-77438337D01*
X90838820Y-77497302D01*
X90958518Y-77533612D01*
X91083000Y-77545872D01*
X93824114Y-77545872D01*
X93807000Y-77631911D01*
X93807000Y-77816089D01*
X93842932Y-77996729D01*
X93913414Y-78166889D01*
X94015738Y-78320028D01*
X94145972Y-78450262D01*
X94299111Y-78552586D01*
X94469271Y-78623068D01*
X94649911Y-78659000D01*
X94834089Y-78659000D01*
X95014729Y-78623068D01*
X95184889Y-78552586D01*
X95287535Y-78484000D01*
X96472136Y-78484000D01*
X96501271Y-78496068D01*
X96681911Y-78532000D01*
X96866089Y-78532000D01*
X97046729Y-78496068D01*
X97216889Y-78425586D01*
X97370028Y-78323262D01*
X97500262Y-78193028D01*
X97602586Y-78039889D01*
X97673068Y-77869729D01*
X97709000Y-77689089D01*
X97709000Y-77545174D01*
X98647250Y-77542800D01*
X98806000Y-77384050D01*
X98806000Y-76534800D01*
X99060000Y-76534800D01*
X99060000Y-77384050D01*
X99218750Y-77542800D01*
X100433000Y-77545872D01*
X100557482Y-77533612D01*
X100677180Y-77497302D01*
X100787494Y-77438337D01*
X100884185Y-77358985D01*
X100963537Y-77262294D01*
X101022502Y-77151980D01*
X101058812Y-77032282D01*
X101071072Y-76907800D01*
X101068000Y-76693550D01*
X100909250Y-76534800D01*
X99060000Y-76534800D01*
X98806000Y-76534800D01*
X96956750Y-76534800D01*
X96829550Y-76662000D01*
X96681911Y-76662000D01*
X96501271Y-76697932D01*
X96331111Y-76768414D01*
X96177972Y-76870738D01*
X96084710Y-76964000D01*
X95287535Y-76964000D01*
X95184889Y-76895414D01*
X95014729Y-76824932D01*
X94834089Y-76789000D01*
X94721072Y-76789000D01*
X94721072Y-75907800D01*
X96794928Y-75907800D01*
X96798000Y-76122050D01*
X96956750Y-76280800D01*
X98806000Y-76280800D01*
X98806000Y-75431550D01*
X99060000Y-75431550D01*
X99060000Y-76280800D01*
X100909250Y-76280800D01*
X101068000Y-76122050D01*
X101071072Y-75907800D01*
X101058812Y-75783318D01*
X101022502Y-75663620D01*
X100963537Y-75553306D01*
X100884185Y-75456615D01*
X100787494Y-75377263D01*
X100677180Y-75318298D01*
X100557482Y-75281988D01*
X100433000Y-75269728D01*
X99218750Y-75272800D01*
X99060000Y-75431550D01*
X98806000Y-75431550D01*
X98647250Y-75272800D01*
X97433000Y-75269728D01*
X97308518Y-75281988D01*
X97188820Y-75318298D01*
X97078506Y-75377263D01*
X96981815Y-75456615D01*
X96902463Y-75553306D01*
X96843498Y-75663620D01*
X96807188Y-75783318D01*
X96794928Y-75907800D01*
X94721072Y-75907800D01*
X94708812Y-75783318D01*
X94672502Y-75663620D01*
X94613537Y-75553306D01*
X94534185Y-75456615D01*
X94437494Y-75377263D01*
X94327180Y-75318298D01*
X94207482Y-75281988D01*
X94083000Y-75269728D01*
X92519730Y-75269728D01*
X90930000Y-73679999D01*
X90930000Y-70524961D01*
X90958518Y-70533612D01*
X91083000Y-70545872D01*
X94083000Y-70545872D01*
X94207482Y-70533612D01*
X94327180Y-70497302D01*
X94437494Y-70438337D01*
X94534185Y-70358985D01*
X94613537Y-70262294D01*
X94672502Y-70151980D01*
X94708812Y-70032282D01*
X94721072Y-69907800D01*
X96794928Y-69907800D01*
X96807188Y-70032282D01*
X96843498Y-70151980D01*
X96902463Y-70262294D01*
X96981815Y-70358985D01*
X97078506Y-70438337D01*
X97188820Y-70497302D01*
X97308518Y-70533612D01*
X97433000Y-70545872D01*
X98647250Y-70542800D01*
X98806000Y-70384050D01*
X98806000Y-69534800D01*
X99060000Y-69534800D01*
X99060000Y-70384050D01*
X99218750Y-70542800D01*
X100433000Y-70545872D01*
X100557482Y-70533612D01*
X100677180Y-70497302D01*
X100787494Y-70438337D01*
X100884185Y-70358985D01*
X100963537Y-70262294D01*
X101022502Y-70151980D01*
X101058812Y-70032282D01*
X101071072Y-69907800D01*
X101068000Y-69693550D01*
X100909250Y-69534800D01*
X99060000Y-69534800D01*
X98806000Y-69534800D01*
X96956750Y-69534800D01*
X96798000Y-69693550D01*
X96794928Y-69907800D01*
X94721072Y-69907800D01*
X94721072Y-69675729D01*
X95380003Y-69016799D01*
X95409001Y-68993001D01*
X95478923Y-68907800D01*
X96794928Y-68907800D01*
X96798000Y-69122050D01*
X96956750Y-69280800D01*
X98806000Y-69280800D01*
X98806000Y-68431550D01*
X99060000Y-68431550D01*
X99060000Y-69280800D01*
X100909250Y-69280800D01*
X101068000Y-69122050D01*
X101071072Y-68907800D01*
X101058812Y-68783318D01*
X101022502Y-68663620D01*
X100963537Y-68553306D01*
X100884185Y-68456615D01*
X100787494Y-68377263D01*
X100677180Y-68318298D01*
X100557482Y-68281988D01*
X100433000Y-68269728D01*
X99218750Y-68272800D01*
X99060000Y-68431550D01*
X98806000Y-68431550D01*
X98647250Y-68272800D01*
X97433000Y-68269728D01*
X97308518Y-68281988D01*
X97188820Y-68318298D01*
X97078506Y-68377263D01*
X96981815Y-68456615D01*
X96902463Y-68553306D01*
X96843498Y-68663620D01*
X96807188Y-68783318D01*
X96794928Y-68907800D01*
X95478923Y-68907800D01*
X95487953Y-68896798D01*
X95503974Y-68877277D01*
X95574546Y-68745247D01*
X95583094Y-68717068D01*
X95618003Y-68601986D01*
X95629000Y-68490333D01*
X95629000Y-68490324D01*
X95632676Y-68453001D01*
X95629000Y-68415678D01*
X95629000Y-68363535D01*
X95697586Y-68260889D01*
X95768068Y-68090729D01*
X95804000Y-67910089D01*
X95804000Y-67725911D01*
X95768068Y-67545271D01*
X95704141Y-67390936D01*
X95793738Y-67525028D01*
X95923972Y-67655262D01*
X96077111Y-67757586D01*
X96247271Y-67828068D01*
X96427911Y-67864000D01*
X96612089Y-67864000D01*
X96792729Y-67828068D01*
X96962889Y-67757586D01*
X97116028Y-67655262D01*
X97246262Y-67525028D01*
X97348586Y-67371889D01*
X97419068Y-67201729D01*
X97455000Y-67021089D01*
X97455000Y-66836911D01*
X97419068Y-66656271D01*
X97348586Y-66486111D01*
X97280000Y-66383465D01*
X97280000Y-66206000D01*
X101889928Y-66206000D01*
X101889928Y-67906000D01*
X101902188Y-68030482D01*
X101938498Y-68150180D01*
X101997463Y-68260494D01*
X102076815Y-68357185D01*
X102173506Y-68436537D01*
X102283820Y-68495502D01*
X102403518Y-68531812D01*
X102528000Y-68544072D01*
X104228000Y-68544072D01*
X104352482Y-68531812D01*
X104472180Y-68495502D01*
X104582494Y-68436537D01*
X104679185Y-68357185D01*
X104758537Y-68260494D01*
X104817502Y-68150180D01*
X104853812Y-68030482D01*
X104866072Y-67906000D01*
X104866072Y-66206000D01*
X104853812Y-66081518D01*
X104817502Y-65961820D01*
X104758537Y-65851506D01*
X104679185Y-65754815D01*
X104582494Y-65675463D01*
X104472180Y-65616498D01*
X104391534Y-65592034D01*
X104475588Y-65516269D01*
X104649641Y-65282920D01*
X104774825Y-65020099D01*
X104819476Y-64872890D01*
X104698155Y-64643000D01*
X103505000Y-64643000D01*
X103505000Y-64663000D01*
X103251000Y-64663000D01*
X103251000Y-64643000D01*
X102057845Y-64643000D01*
X101936524Y-64872890D01*
X101981175Y-65020099D01*
X102106359Y-65282920D01*
X102280412Y-65516269D01*
X102364466Y-65592034D01*
X102283820Y-65616498D01*
X102173506Y-65675463D01*
X102076815Y-65754815D01*
X101997463Y-65851506D01*
X101938498Y-65961820D01*
X101902188Y-66081518D01*
X101889928Y-66206000D01*
X97280000Y-66206000D01*
X97280000Y-64159110D01*
X101936524Y-64159110D01*
X102057845Y-64389000D01*
X103251000Y-64389000D01*
X103251000Y-63195186D01*
X103505000Y-63195186D01*
X103505000Y-64389000D01*
X104698155Y-64389000D01*
X104819476Y-64159110D01*
X104774825Y-64011901D01*
X104649641Y-63749080D01*
X104475588Y-63515731D01*
X104259355Y-63320822D01*
X104009252Y-63171843D01*
X103734891Y-63074519D01*
X103505000Y-63195186D01*
X103251000Y-63195186D01*
X103021109Y-63074519D01*
X102746748Y-63171843D01*
X102496645Y-63320822D01*
X102280412Y-63515731D01*
X102106359Y-63749080D01*
X101981175Y-64011901D01*
X101936524Y-64159110D01*
X97280000Y-64159110D01*
X97280000Y-63664322D01*
X97283676Y-63626999D01*
X97280000Y-63589676D01*
X97280000Y-63589667D01*
X97273431Y-63522968D01*
X97308518Y-63533612D01*
X97433000Y-63545872D01*
X98647250Y-63542800D01*
X98806000Y-63384050D01*
X98806000Y-62534800D01*
X99060000Y-62534800D01*
X99060000Y-63384050D01*
X99218750Y-63542800D01*
X100433000Y-63545872D01*
X100557482Y-63533612D01*
X100677180Y-63497302D01*
X100787494Y-63438337D01*
X100884185Y-63358985D01*
X100963537Y-63262294D01*
X101022502Y-63151980D01*
X101058812Y-63032282D01*
X101071072Y-62907800D01*
X101068000Y-62693550D01*
X100909250Y-62534800D01*
X99060000Y-62534800D01*
X98806000Y-62534800D01*
X96956750Y-62534800D01*
X96798000Y-62693550D01*
X96796068Y-62828267D01*
X95875601Y-61907800D01*
X96794928Y-61907800D01*
X96798000Y-62122050D01*
X96956750Y-62280800D01*
X98806000Y-62280800D01*
X98806000Y-61431550D01*
X99060000Y-61431550D01*
X99060000Y-62280800D01*
X100909250Y-62280800D01*
X101068000Y-62122050D01*
X101071072Y-61907800D01*
X101058812Y-61783318D01*
X101022502Y-61663620D01*
X100963537Y-61553306D01*
X100884185Y-61456615D01*
X100787494Y-61377263D01*
X100677180Y-61318298D01*
X100557482Y-61281988D01*
X100433000Y-61269728D01*
X99218750Y-61272800D01*
X99060000Y-61431550D01*
X98806000Y-61431550D01*
X98647250Y-61272800D01*
X97433000Y-61269728D01*
X97308518Y-61281988D01*
X97188820Y-61318298D01*
X97078506Y-61377263D01*
X96981815Y-61456615D01*
X96902463Y-61553306D01*
X96843498Y-61663620D01*
X96807188Y-61783318D01*
X96794928Y-61907800D01*
X95875601Y-61907800D01*
X95864604Y-61896803D01*
X95840801Y-61867799D01*
X95725076Y-61772826D01*
X95593047Y-61702254D01*
X95449786Y-61658797D01*
X95338133Y-61647800D01*
X95338122Y-61647800D01*
X95300800Y-61644124D01*
X95263478Y-61647800D01*
X94664046Y-61647800D01*
X94613537Y-61553306D01*
X94534185Y-61456615D01*
X94437494Y-61377263D01*
X94327180Y-61318298D01*
X94207482Y-61281988D01*
X94083000Y-61269728D01*
X91083000Y-61269728D01*
X90958518Y-61281988D01*
X90838820Y-61318298D01*
X90728506Y-61377263D01*
X90631815Y-61456615D01*
X90552463Y-61553306D01*
X90493498Y-61663620D01*
X90457188Y-61783318D01*
X90444928Y-61907800D01*
X90444928Y-62907800D01*
X90457188Y-63032282D01*
X90493498Y-63151980D01*
X90552463Y-63262294D01*
X90631815Y-63358985D01*
X90728506Y-63438337D01*
X90838820Y-63497302D01*
X90958518Y-63533612D01*
X91083000Y-63545872D01*
X94083000Y-63545872D01*
X94207482Y-63533612D01*
X94327180Y-63497302D01*
X94437494Y-63438337D01*
X94534185Y-63358985D01*
X94613537Y-63262294D01*
X94664046Y-63167800D01*
X94985999Y-63167800D01*
X95760000Y-63941802D01*
X95760001Y-66383463D01*
X95691414Y-66486111D01*
X95620932Y-66656271D01*
X95585000Y-66836911D01*
X95585000Y-67021089D01*
X95620932Y-67201729D01*
X95684859Y-67356064D01*
X95595262Y-67221972D01*
X95465028Y-67091738D01*
X95311889Y-66989414D01*
X95141729Y-66918932D01*
X94961089Y-66883000D01*
X94776911Y-66883000D01*
X94596271Y-66918932D01*
X94426111Y-66989414D01*
X94272972Y-67091738D01*
X94142738Y-67221972D01*
X94040414Y-67375111D01*
X93969932Y-67545271D01*
X93934000Y-67725911D01*
X93934000Y-67910089D01*
X93969932Y-68090729D01*
X94024567Y-68222631D01*
X93977470Y-68269728D01*
X91083000Y-68269728D01*
X90958518Y-68281988D01*
X90930000Y-68290639D01*
X90930000Y-66989801D01*
X91591649Y-66328153D01*
X91712729Y-66304068D01*
X91882889Y-66233586D01*
X92036028Y-66131262D01*
X92166262Y-66001028D01*
X92268586Y-65847889D01*
X92339068Y-65677729D01*
X92375000Y-65497089D01*
X92375000Y-65312911D01*
X92339068Y-65132271D01*
X92268586Y-64962111D01*
X92166262Y-64808972D01*
X92036028Y-64678738D01*
X91882889Y-64576414D01*
X91712729Y-64505932D01*
X91532089Y-64470000D01*
X91347911Y-64470000D01*
X91167271Y-64505932D01*
X90997111Y-64576414D01*
X90843972Y-64678738D01*
X90713738Y-64808972D01*
X90611414Y-64962111D01*
X90540932Y-65132271D01*
X90516847Y-65253351D01*
X89658998Y-66111201D01*
X89630000Y-66134999D01*
X89620249Y-66146880D01*
X89613812Y-66081518D01*
X89577502Y-65961820D01*
X89518537Y-65851506D01*
X89439185Y-65754815D01*
X89342494Y-65675463D01*
X89232180Y-65616498D01*
X89151534Y-65592034D01*
X89235588Y-65516269D01*
X89409641Y-65282920D01*
X89534825Y-65020099D01*
X89579476Y-64872890D01*
X89458155Y-64643000D01*
X88265000Y-64643000D01*
X88265000Y-64663000D01*
X88011000Y-64663000D01*
X88011000Y-64643000D01*
X86817845Y-64643000D01*
X86696524Y-64872890D01*
X86741175Y-65020099D01*
X86866359Y-65282920D01*
X87040412Y-65516269D01*
X87124466Y-65592034D01*
X87043820Y-65616498D01*
X86933506Y-65675463D01*
X86836815Y-65754815D01*
X86757463Y-65851506D01*
X86698498Y-65961820D01*
X86662188Y-66081518D01*
X86649928Y-66206000D01*
X85998000Y-66206000D01*
X85998000Y-64159110D01*
X86696524Y-64159110D01*
X86817845Y-64389000D01*
X88011000Y-64389000D01*
X88011000Y-63195186D01*
X88265000Y-63195186D01*
X88265000Y-64389000D01*
X89458155Y-64389000D01*
X89579476Y-64159110D01*
X89534825Y-64011901D01*
X89409641Y-63749080D01*
X89235588Y-63515731D01*
X89019355Y-63320822D01*
X88769252Y-63171843D01*
X88494891Y-63074519D01*
X88265000Y-63195186D01*
X88011000Y-63195186D01*
X87781109Y-63074519D01*
X87506748Y-63171843D01*
X87256645Y-63320822D01*
X87040412Y-63515731D01*
X86866359Y-63749080D01*
X86741175Y-64011901D01*
X86696524Y-64159110D01*
X85998000Y-64159110D01*
X85998000Y-59708867D01*
X87213869Y-58493000D01*
X91588715Y-58493000D01*
X91711744Y-58575205D01*
X91900102Y-58653226D01*
X92100061Y-58693000D01*
X92303939Y-58693000D01*
X92503898Y-58653226D01*
X92692256Y-58575205D01*
X92861774Y-58461937D01*
X93005937Y-58317774D01*
X93119205Y-58148256D01*
X93197226Y-57959898D01*
X93237000Y-57759939D01*
X93237000Y-57556061D01*
X93197226Y-57356102D01*
X93119205Y-57167744D01*
X93005937Y-56998226D01*
X92861774Y-56854063D01*
X92692256Y-56740795D01*
X92503898Y-56662774D01*
X92419596Y-56646005D01*
X92519730Y-56545872D01*
X94083000Y-56545872D01*
X94207482Y-56533612D01*
X94327180Y-56497302D01*
X94437494Y-56438337D01*
X94534185Y-56358985D01*
X94613537Y-56262294D01*
X94672502Y-56151980D01*
X94708812Y-56032282D01*
X94712201Y-55997868D01*
X94923001Y-56208667D01*
X94923000Y-56849595D01*
X94858932Y-57004271D01*
X94823000Y-57184911D01*
X94823000Y-57369089D01*
X94858932Y-57549729D01*
X94929414Y-57719889D01*
X95031738Y-57873028D01*
X95161972Y-58003262D01*
X95315111Y-58105586D01*
X95485271Y-58176068D01*
X95665911Y-58212000D01*
X95850089Y-58212000D01*
X96030729Y-58176068D01*
X96200889Y-58105586D01*
X96354028Y-58003262D01*
X96484262Y-57873028D01*
X96586586Y-57719889D01*
X96657068Y-57549729D01*
X96693000Y-57369089D01*
X96693000Y-57184911D01*
X96657068Y-57004271D01*
X96593000Y-56849596D01*
X96593000Y-55907800D01*
X96794928Y-55907800D01*
X96807188Y-56032282D01*
X96843498Y-56151980D01*
X96902463Y-56262294D01*
X96981815Y-56358985D01*
X97078506Y-56438337D01*
X97188820Y-56497302D01*
X97308518Y-56533612D01*
X97433000Y-56545872D01*
X98647250Y-56542800D01*
X98806000Y-56384050D01*
X98806000Y-55534800D01*
X99060000Y-55534800D01*
X99060000Y-56384050D01*
X99218750Y-56542800D01*
X100433000Y-56545872D01*
X100557482Y-56533612D01*
X100677180Y-56497302D01*
X100787494Y-56438337D01*
X100884185Y-56358985D01*
X100963537Y-56262294D01*
X101022502Y-56151980D01*
X101058812Y-56032282D01*
X101071072Y-55907800D01*
X101068000Y-55693550D01*
X100909250Y-55534800D01*
X99060000Y-55534800D01*
X98806000Y-55534800D01*
X96956750Y-55534800D01*
X96798000Y-55693550D01*
X96794928Y-55907800D01*
X96593000Y-55907800D01*
X96593000Y-55903816D01*
X96597040Y-55862798D01*
X96580918Y-55699110D01*
X96579232Y-55693550D01*
X96533172Y-55541711D01*
X96455636Y-55396652D01*
X96351291Y-55269507D01*
X96319432Y-55243361D01*
X95983871Y-54907800D01*
X96794928Y-54907800D01*
X96798000Y-55122050D01*
X96956750Y-55280800D01*
X98806000Y-55280800D01*
X98806000Y-54431550D01*
X99060000Y-54431550D01*
X99060000Y-55280800D01*
X100909250Y-55280800D01*
X101068000Y-55122050D01*
X101071072Y-54907800D01*
X101058812Y-54783318D01*
X101022502Y-54663620D01*
X100963537Y-54553306D01*
X100884185Y-54456615D01*
X100787494Y-54377263D01*
X100677180Y-54318298D01*
X100557482Y-54281988D01*
X100433000Y-54269728D01*
X99218750Y-54272800D01*
X99060000Y-54431550D01*
X98806000Y-54431550D01*
X98647250Y-54272800D01*
X97433000Y-54269728D01*
X97308518Y-54281988D01*
X97188820Y-54318298D01*
X97078506Y-54377263D01*
X96981815Y-54456615D01*
X96902463Y-54553306D01*
X96843498Y-54663620D01*
X96807188Y-54783318D01*
X96794928Y-54907800D01*
X95983871Y-54907800D01*
X94943070Y-53867000D01*
X101970546Y-53867000D01*
X101988498Y-53926180D01*
X102047463Y-54036494D01*
X102126815Y-54133185D01*
X102223506Y-54212537D01*
X102333820Y-54271502D01*
X102406380Y-54293513D01*
X102274525Y-54425368D01*
X102112010Y-54668589D01*
X102000068Y-54938842D01*
X101943000Y-55225740D01*
X101943000Y-55518260D01*
X102000068Y-55805158D01*
X102112010Y-56075411D01*
X102274525Y-56318632D01*
X102481368Y-56525475D01*
X102724589Y-56687990D01*
X102994842Y-56799932D01*
X103281740Y-56857000D01*
X103574260Y-56857000D01*
X103861158Y-56799932D01*
X104131411Y-56687990D01*
X104341790Y-56547419D01*
X105899000Y-58104630D01*
X105899001Y-71834288D01*
X105385229Y-72348061D01*
X105385226Y-72348063D01*
X105241063Y-72492226D01*
X105212671Y-72534717D01*
X105180266Y-72574203D01*
X105156187Y-72619252D01*
X105127795Y-72661744D01*
X105108236Y-72708964D01*
X105084160Y-72754007D01*
X105069335Y-72802878D01*
X105049774Y-72850102D01*
X105039803Y-72900232D01*
X105024977Y-72949105D01*
X105019971Y-72999933D01*
X105010000Y-73050061D01*
X105010000Y-73101172D01*
X105004994Y-73152000D01*
X105010000Y-73202828D01*
X105010000Y-73253939D01*
X105019971Y-73304067D01*
X105024977Y-73354895D01*
X105039803Y-73403768D01*
X105049774Y-73453898D01*
X105069335Y-73501122D01*
X105084160Y-73549993D01*
X105108236Y-73595036D01*
X105127795Y-73642256D01*
X105156187Y-73684748D01*
X105180266Y-73729797D01*
X105212672Y-73769284D01*
X105241063Y-73811774D01*
X105277197Y-73847908D01*
X105309604Y-73887396D01*
X105349092Y-73919803D01*
X105385226Y-73955937D01*
X105427716Y-73984328D01*
X105467203Y-74016734D01*
X105512252Y-74040813D01*
X105554744Y-74069205D01*
X105601964Y-74088764D01*
X105647007Y-74112840D01*
X105695878Y-74127665D01*
X105743102Y-74147226D01*
X105793232Y-74157197D01*
X105842105Y-74172023D01*
X105892933Y-74177029D01*
X105943061Y-74187000D01*
X105994172Y-74187000D01*
X106045000Y-74192006D01*
X106095828Y-74187000D01*
X106146939Y-74187000D01*
X106197067Y-74177029D01*
X106247895Y-74172023D01*
X106296768Y-74157197D01*
X106346898Y-74147226D01*
X106394122Y-74127665D01*
X106442993Y-74112840D01*
X106488036Y-74088764D01*
X106535256Y-74069205D01*
X106577748Y-74040813D01*
X106622797Y-74016734D01*
X106662283Y-73984329D01*
X106704774Y-73955937D01*
X106848937Y-73811774D01*
X106848939Y-73811771D01*
X107629908Y-73030803D01*
X107669396Y-72998396D01*
X107791098Y-72850102D01*
X107798734Y-72840798D01*
X107850104Y-72744691D01*
X107894841Y-72660993D01*
X107954024Y-72465895D01*
X107969000Y-72313838D01*
X107969000Y-72313835D01*
X107974007Y-72263000D01*
X107969000Y-72212165D01*
X107969000Y-57726746D01*
X107974006Y-57675918D01*
X107969000Y-57625090D01*
X107969000Y-57625081D01*
X107954024Y-57473024D01*
X107894841Y-57277926D01*
X107798734Y-57098122D01*
X107669396Y-56940523D01*
X107629908Y-56908116D01*
X105397888Y-54676097D01*
X105365477Y-54636604D01*
X105207878Y-54507266D01*
X105028074Y-54411159D01*
X104832976Y-54351976D01*
X104680919Y-54337000D01*
X104680909Y-54337000D01*
X104630081Y-54331994D01*
X104579253Y-54337000D01*
X104493107Y-54337000D01*
X104449620Y-54293513D01*
X104522180Y-54271502D01*
X104632494Y-54212537D01*
X104729185Y-54133185D01*
X104808537Y-54036494D01*
X104867502Y-53926180D01*
X104903812Y-53806482D01*
X104916072Y-53682000D01*
X104916072Y-51982000D01*
X104903812Y-51857518D01*
X104867502Y-51737820D01*
X104808537Y-51627506D01*
X104729185Y-51530815D01*
X104632494Y-51451463D01*
X104522180Y-51392498D01*
X104402482Y-51356188D01*
X104278000Y-51343928D01*
X102578000Y-51343928D01*
X102453518Y-51356188D01*
X102333820Y-51392498D01*
X102223506Y-51451463D01*
X102126815Y-51530815D01*
X102047463Y-51627506D01*
X101988498Y-51737820D01*
X101970546Y-51797000D01*
X89645454Y-51797000D01*
X89627502Y-51737820D01*
X89601512Y-51689198D01*
X94400935Y-46889775D01*
X102947830Y-46889775D01*
X103187976Y-47277018D01*
X103681877Y-47537641D01*
X104217133Y-47696901D01*
X104773174Y-47748678D01*
X105328632Y-47690981D01*
X105862161Y-47526028D01*
X106328024Y-47277018D01*
X106568170Y-46889775D01*
X104758000Y-45079605D01*
X102947830Y-46889775D01*
X94400935Y-46889775D01*
X95203908Y-46086803D01*
X95243396Y-46054396D01*
X95284623Y-46004161D01*
X95372734Y-45896798D01*
X95468840Y-45716994D01*
X95468841Y-45716993D01*
X95528024Y-45521895D01*
X95543000Y-45369838D01*
X95543000Y-45369835D01*
X95548007Y-45319000D01*
X95543000Y-45268165D01*
X95543000Y-44915174D01*
X101909322Y-44915174D01*
X101967019Y-45470632D01*
X102131972Y-46004161D01*
X102380982Y-46470024D01*
X102768225Y-46710170D01*
X104578395Y-44900000D01*
X104937605Y-44900000D01*
X106747775Y-46710170D01*
X107135018Y-46470024D01*
X107395641Y-45976123D01*
X107554901Y-45440867D01*
X107606678Y-44884826D01*
X107548981Y-44329368D01*
X107384028Y-43795839D01*
X107135018Y-43329976D01*
X106747775Y-43089830D01*
X104937605Y-44900000D01*
X104578395Y-44900000D01*
X102768225Y-43089830D01*
X102380982Y-43329976D01*
X102120359Y-43823877D01*
X101961099Y-44359133D01*
X101909322Y-44915174D01*
X95543000Y-44915174D01*
X95543000Y-42910225D01*
X102947830Y-42910225D01*
X104758000Y-44720395D01*
X106568170Y-42910225D01*
X106328024Y-42522982D01*
X105834123Y-42262359D01*
X105298867Y-42103099D01*
X104742826Y-42051322D01*
X104187368Y-42109019D01*
X103653839Y-42273972D01*
X103187976Y-42522982D01*
X102947830Y-42910225D01*
X95543000Y-42910225D01*
X95543000Y-42097454D01*
X95602180Y-42079502D01*
X95712494Y-42020537D01*
X95809185Y-41941185D01*
X95888537Y-41844494D01*
X95947502Y-41734180D01*
X95969513Y-41661620D01*
X96101368Y-41793475D01*
X96344589Y-41955990D01*
X96614842Y-42067932D01*
X96901740Y-42125000D01*
X97194260Y-42125000D01*
X97481158Y-42067932D01*
X97751411Y-41955990D01*
X97994632Y-41793475D01*
X98201475Y-41586632D01*
X98363990Y-41343411D01*
X98475932Y-41073158D01*
X98533000Y-40786260D01*
X98533000Y-40493740D01*
X98475932Y-40206842D01*
X98363990Y-39936589D01*
X98201475Y-39693368D01*
X97994632Y-39486525D01*
X97751411Y-39324010D01*
X97481158Y-39212068D01*
X97194260Y-39155000D01*
X96901740Y-39155000D01*
X96614842Y-39212068D01*
X96344589Y-39324010D01*
X96101368Y-39486525D01*
X95969513Y-39618380D01*
X95947502Y-39545820D01*
X95888537Y-39435506D01*
X95809185Y-39338815D01*
X95712494Y-39259463D01*
X95602180Y-39200498D01*
X95482482Y-39164188D01*
X95358000Y-39151928D01*
X93658000Y-39151928D01*
X93533518Y-39164188D01*
X93413820Y-39200498D01*
X93303506Y-39259463D01*
X93206815Y-39338815D01*
X93127463Y-39435506D01*
X93068498Y-39545820D01*
X93032188Y-39665518D01*
X93019928Y-39790000D01*
X93019928Y-41490000D01*
X93032188Y-41614482D01*
X93068498Y-41734180D01*
X93127463Y-41844494D01*
X93206815Y-41941185D01*
X93303506Y-42020537D01*
X93413820Y-42079502D01*
X93473001Y-42097454D01*
X93473000Y-44890289D01*
X87492093Y-50871197D01*
X87452605Y-50903604D01*
X87420198Y-50943092D01*
X87420197Y-50943093D01*
X87323266Y-51061203D01*
X87227160Y-51241007D01*
X87190061Y-51363304D01*
X87093820Y-51392498D01*
X86983506Y-51451463D01*
X86886815Y-51530815D01*
X86807463Y-51627506D01*
X86748498Y-51737820D01*
X86712188Y-51857518D01*
X86699928Y-51982000D01*
X86699928Y-52856361D01*
X84267092Y-55289198D01*
X84227605Y-55321604D01*
X84195198Y-55361092D01*
X84195197Y-55361093D01*
X84098266Y-55479203D01*
X84002160Y-55659007D01*
X83942977Y-55854105D01*
X83922994Y-56057000D01*
X83464000Y-56057000D01*
X83464000Y-46889775D01*
X84947830Y-46889775D01*
X85187976Y-47277018D01*
X85681877Y-47537641D01*
X86217133Y-47696901D01*
X86773174Y-47748678D01*
X87328632Y-47690981D01*
X87862161Y-47526028D01*
X88328024Y-47277018D01*
X88568170Y-46889775D01*
X86758000Y-45079605D01*
X84947830Y-46889775D01*
X83464000Y-46889775D01*
X83464000Y-44915174D01*
X83909322Y-44915174D01*
X83967019Y-45470632D01*
X84131972Y-46004161D01*
X84380982Y-46470024D01*
X84768225Y-46710170D01*
X86578395Y-44900000D01*
X86937605Y-44900000D01*
X88747775Y-46710170D01*
X89135018Y-46470024D01*
X89395641Y-45976123D01*
X89554901Y-45440867D01*
X89606678Y-44884826D01*
X89548981Y-44329368D01*
X89384028Y-43795839D01*
X89135018Y-43329976D01*
X88747775Y-43089830D01*
X86937605Y-44900000D01*
X86578395Y-44900000D01*
X84768225Y-43089830D01*
X84380982Y-43329976D01*
X84120359Y-43823877D01*
X83961099Y-44359133D01*
X83909322Y-44915174D01*
X83464000Y-44915174D01*
X83464000Y-42910225D01*
X84947830Y-42910225D01*
X86758000Y-44720395D01*
X88568170Y-42910225D01*
X88328024Y-42522982D01*
X87834123Y-42262359D01*
X87298867Y-42103099D01*
X86742826Y-42051322D01*
X86187368Y-42109019D01*
X85653839Y-42273972D01*
X85187976Y-42522982D01*
X84947830Y-42910225D01*
X83464000Y-42910225D01*
X83464000Y-41688279D01*
X83531933Y-40995442D01*
X83723772Y-40360040D01*
X84035373Y-39774006D01*
X84454870Y-39259653D01*
X84966275Y-38836581D01*
X85550123Y-38520896D01*
X86184170Y-38324625D01*
X86875155Y-38252000D01*
X104615721Y-38252000D01*
X105308558Y-38319933D01*
G04 #@! TD*
M02*
