G04 #@! TF.GenerationSoftware,KiCad,Pcbnew,(5.1.6)-1*
G04 #@! TF.CreationDate,2021-01-24T21:52:35-08:00*
G04 #@! TF.ProjectId,infrared_remote,696e6672-6172-4656-945f-72656d6f7465,rev?*
G04 #@! TF.SameCoordinates,Original*
G04 #@! TF.FileFunction,Legend,Top*
G04 #@! TF.FilePolarity,Positive*
%FSLAX46Y46*%
G04 Gerber Fmt 4.6, Leading zero omitted, Abs format (unit mm)*
G04 Created by KiCad (PCBNEW (5.1.6)-1) date 2021-01-24 21:52:35*
%MOMM*%
%LPD*%
G01*
G04 APERTURE LIST*
%ADD10C,0.150000*%
%ADD11C,0.120000*%
G04 APERTURE END LIST*
D10*
X99576095Y-41092380D02*
X99099904Y-41092380D01*
X99099904Y-40092380D01*
X99909428Y-40568571D02*
X100242761Y-40568571D01*
X100385619Y-41092380D02*
X99909428Y-41092380D01*
X99909428Y-40092380D01*
X100385619Y-40092380D01*
X100814190Y-41092380D02*
X100814190Y-40092380D01*
X101052285Y-40092380D01*
X101195142Y-40140000D01*
X101290380Y-40235238D01*
X101338000Y-40330476D01*
X101385619Y-40520952D01*
X101385619Y-40663809D01*
X101338000Y-40854285D01*
X101290380Y-40949523D01*
X101195142Y-41044761D01*
X101052285Y-41092380D01*
X100814190Y-41092380D01*
X101814190Y-40711428D02*
X102576095Y-40711428D01*
X89416095Y-41092380D02*
X88939904Y-41092380D01*
X88939904Y-40092380D01*
X89749428Y-40568571D02*
X90082761Y-40568571D01*
X90225619Y-41092380D02*
X89749428Y-41092380D01*
X89749428Y-40092380D01*
X90225619Y-40092380D01*
X90654190Y-41092380D02*
X90654190Y-40092380D01*
X90892285Y-40092380D01*
X91035142Y-40140000D01*
X91130380Y-40235238D01*
X91178000Y-40330476D01*
X91225619Y-40520952D01*
X91225619Y-40663809D01*
X91178000Y-40854285D01*
X91130380Y-40949523D01*
X91035142Y-41044761D01*
X90892285Y-41092380D01*
X90654190Y-41092380D01*
X91654190Y-40711428D02*
X92416095Y-40711428D01*
X92035142Y-41092380D02*
X92035142Y-40330476D01*
X101879190Y-69556380D02*
X101879190Y-70365904D01*
X101926809Y-70461142D01*
X101974428Y-70508761D01*
X102069666Y-70556380D01*
X102260142Y-70556380D01*
X102355380Y-70508761D01*
X102403000Y-70461142D01*
X102450619Y-70365904D01*
X102450619Y-69556380D01*
X102926809Y-70556380D02*
X102926809Y-69556380D01*
X103307761Y-69556380D01*
X103403000Y-69604000D01*
X103450619Y-69651619D01*
X103498238Y-69746857D01*
X103498238Y-69889714D01*
X103450619Y-69984952D01*
X103403000Y-70032571D01*
X103307761Y-70080190D01*
X102926809Y-70080190D01*
X103926809Y-70556380D02*
X103926809Y-69556380D01*
X104164904Y-69556380D01*
X104307761Y-69604000D01*
X104403000Y-69699238D01*
X104450619Y-69794476D01*
X104498238Y-69984952D01*
X104498238Y-70127809D01*
X104450619Y-70318285D01*
X104403000Y-70413523D01*
X104307761Y-70508761D01*
X104164904Y-70556380D01*
X103926809Y-70556380D01*
X104926809Y-70556380D02*
X104926809Y-69556380D01*
X102641095Y-61095000D02*
X102545857Y-61047380D01*
X102403000Y-61047380D01*
X102260142Y-61095000D01*
X102164904Y-61190238D01*
X102117285Y-61285476D01*
X102069666Y-61475952D01*
X102069666Y-61618809D01*
X102117285Y-61809285D01*
X102164904Y-61904523D01*
X102260142Y-61999761D01*
X102403000Y-62047380D01*
X102498238Y-62047380D01*
X102641095Y-61999761D01*
X102688714Y-61952142D01*
X102688714Y-61618809D01*
X102498238Y-61618809D01*
X103117285Y-62047380D02*
X103117285Y-61047380D01*
X103688714Y-62047380D01*
X103688714Y-61047380D01*
X104164904Y-62047380D02*
X104164904Y-61047380D01*
X104403000Y-61047380D01*
X104545857Y-61095000D01*
X104641095Y-61190238D01*
X104688714Y-61285476D01*
X104736333Y-61475952D01*
X104736333Y-61618809D01*
X104688714Y-61809285D01*
X104641095Y-61904523D01*
X104545857Y-61999761D01*
X104403000Y-62047380D01*
X104164904Y-62047380D01*
X86639190Y-69556380D02*
X86639190Y-70365904D01*
X86686809Y-70461142D01*
X86734428Y-70508761D01*
X86829666Y-70556380D01*
X87020142Y-70556380D01*
X87115380Y-70508761D01*
X87163000Y-70461142D01*
X87210619Y-70365904D01*
X87210619Y-69556380D01*
X87686809Y-70556380D02*
X87686809Y-69556380D01*
X88067761Y-69556380D01*
X88163000Y-69604000D01*
X88210619Y-69651619D01*
X88258238Y-69746857D01*
X88258238Y-69889714D01*
X88210619Y-69984952D01*
X88163000Y-70032571D01*
X88067761Y-70080190D01*
X87686809Y-70080190D01*
X88686809Y-70556380D02*
X88686809Y-69556380D01*
X88924904Y-69556380D01*
X89067761Y-69604000D01*
X89163000Y-69699238D01*
X89210619Y-69794476D01*
X89258238Y-69984952D01*
X89258238Y-70127809D01*
X89210619Y-70318285D01*
X89163000Y-70413523D01*
X89067761Y-70508761D01*
X88924904Y-70556380D01*
X88686809Y-70556380D01*
X89686809Y-70556380D02*
X89686809Y-69556380D01*
X87401095Y-61095000D02*
X87305857Y-61047380D01*
X87163000Y-61047380D01*
X87020142Y-61095000D01*
X86924904Y-61190238D01*
X86877285Y-61285476D01*
X86829666Y-61475952D01*
X86829666Y-61618809D01*
X86877285Y-61809285D01*
X86924904Y-61904523D01*
X87020142Y-61999761D01*
X87163000Y-62047380D01*
X87258238Y-62047380D01*
X87401095Y-61999761D01*
X87448714Y-61952142D01*
X87448714Y-61618809D01*
X87258238Y-61618809D01*
X87877285Y-62047380D02*
X87877285Y-61047380D01*
X88448714Y-62047380D01*
X88448714Y-61047380D01*
X88924904Y-62047380D02*
X88924904Y-61047380D01*
X89163000Y-61047380D01*
X89305857Y-61095000D01*
X89401095Y-61190238D01*
X89448714Y-61285476D01*
X89496333Y-61475952D01*
X89496333Y-61618809D01*
X89448714Y-61809285D01*
X89401095Y-61904523D01*
X89305857Y-61999761D01*
X89163000Y-62047380D01*
X88924904Y-62047380D01*
X102045857Y-57840571D02*
X102188714Y-57888190D01*
X102236333Y-57935809D01*
X102283952Y-58031047D01*
X102283952Y-58173904D01*
X102236333Y-58269142D01*
X102188714Y-58316761D01*
X102093476Y-58364380D01*
X101712523Y-58364380D01*
X101712523Y-57364380D01*
X102045857Y-57364380D01*
X102141095Y-57412000D01*
X102188714Y-57459619D01*
X102236333Y-57554857D01*
X102236333Y-57650095D01*
X102188714Y-57745333D01*
X102141095Y-57792952D01*
X102045857Y-57840571D01*
X101712523Y-57840571D01*
X102664904Y-58078666D02*
X103141095Y-58078666D01*
X102569666Y-58364380D02*
X102903000Y-57364380D01*
X103236333Y-58364380D01*
X103426809Y-57364380D02*
X103998238Y-57364380D01*
X103712523Y-58364380D02*
X103712523Y-57364380D01*
X104331571Y-57983428D02*
X105093476Y-57983428D01*
X102045857Y-49966571D02*
X102188714Y-50014190D01*
X102236333Y-50061809D01*
X102283952Y-50157047D01*
X102283952Y-50299904D01*
X102236333Y-50395142D01*
X102188714Y-50442761D01*
X102093476Y-50490380D01*
X101712523Y-50490380D01*
X101712523Y-49490380D01*
X102045857Y-49490380D01*
X102141095Y-49538000D01*
X102188714Y-49585619D01*
X102236333Y-49680857D01*
X102236333Y-49776095D01*
X102188714Y-49871333D01*
X102141095Y-49918952D01*
X102045857Y-49966571D01*
X101712523Y-49966571D01*
X102664904Y-50204666D02*
X103141095Y-50204666D01*
X102569666Y-50490380D02*
X102903000Y-49490380D01*
X103236333Y-50490380D01*
X103426809Y-49490380D02*
X103998238Y-49490380D01*
X103712523Y-50490380D02*
X103712523Y-49490380D01*
X104331571Y-50109428D02*
X105093476Y-50109428D01*
X104712523Y-50490380D02*
X104712523Y-49728476D01*
X86805857Y-57840571D02*
X86948714Y-57888190D01*
X86996333Y-57935809D01*
X87043952Y-58031047D01*
X87043952Y-58173904D01*
X86996333Y-58269142D01*
X86948714Y-58316761D01*
X86853476Y-58364380D01*
X86472523Y-58364380D01*
X86472523Y-57364380D01*
X86805857Y-57364380D01*
X86901095Y-57412000D01*
X86948714Y-57459619D01*
X86996333Y-57554857D01*
X86996333Y-57650095D01*
X86948714Y-57745333D01*
X86901095Y-57792952D01*
X86805857Y-57840571D01*
X86472523Y-57840571D01*
X87424904Y-58078666D02*
X87901095Y-58078666D01*
X87329666Y-58364380D02*
X87663000Y-57364380D01*
X87996333Y-58364380D01*
X88186809Y-57364380D02*
X88758238Y-57364380D01*
X88472523Y-58364380D02*
X88472523Y-57364380D01*
X89091571Y-57983428D02*
X89853476Y-57983428D01*
X86805857Y-49966571D02*
X86948714Y-50014190D01*
X86996333Y-50061809D01*
X87043952Y-50157047D01*
X87043952Y-50299904D01*
X86996333Y-50395142D01*
X86948714Y-50442761D01*
X86853476Y-50490380D01*
X86472523Y-50490380D01*
X86472523Y-49490380D01*
X86805857Y-49490380D01*
X86901095Y-49538000D01*
X86948714Y-49585619D01*
X86996333Y-49680857D01*
X86996333Y-49776095D01*
X86948714Y-49871333D01*
X86901095Y-49918952D01*
X86805857Y-49966571D01*
X86472523Y-49966571D01*
X87424904Y-50204666D02*
X87901095Y-50204666D01*
X87329666Y-50490380D02*
X87663000Y-49490380D01*
X87996333Y-50490380D01*
X88186809Y-49490380D02*
X88758238Y-49490380D01*
X88472523Y-50490380D02*
X88472523Y-49490380D01*
X89091571Y-50109428D02*
X89853476Y-50109428D01*
X89472523Y-50490380D02*
X89472523Y-49728476D01*
D11*
G04 #@! TO.C,Q3*
X93216000Y-48824000D02*
X93216000Y-47894000D01*
X93216000Y-45664000D02*
X93216000Y-46594000D01*
X93216000Y-45664000D02*
X91056000Y-45664000D01*
X93216000Y-48824000D02*
X91756000Y-48824000D01*
G04 #@! TO.C,Q2*
X98280000Y-48824000D02*
X98280000Y-47894000D01*
X98280000Y-45664000D02*
X98280000Y-46594000D01*
X98280000Y-45664000D02*
X96120000Y-45664000D01*
X98280000Y-48824000D02*
X96820000Y-48824000D01*
G04 #@! TO.C,U3*
X95758000Y-68092000D02*
X97708000Y-68092000D01*
X95758000Y-68092000D02*
X93808000Y-68092000D01*
X95758000Y-62972000D02*
X97708000Y-62972000D01*
X95758000Y-62972000D02*
X92308000Y-62972000D01*
G04 #@! TO.C,U2*
X97144000Y-77302000D02*
X98944000Y-77302000D01*
X98944000Y-74082000D02*
X96494000Y-74082000D01*
G04 #@! TO.C,U1*
X94604000Y-83144000D02*
X96404000Y-83144000D01*
X96404000Y-79924000D02*
X93954000Y-79924000D01*
G04 #@! TO.C,R7*
X97261422Y-51868000D02*
X97778578Y-51868000D01*
X97261422Y-53288000D02*
X97778578Y-53288000D01*
G04 #@! TO.C,R6*
X92714578Y-53288000D02*
X92197422Y-53288000D01*
X92714578Y-51868000D02*
X92197422Y-51868000D01*
G04 #@! TO.C,R5*
X95048000Y-70695078D02*
X95048000Y-70177922D01*
X96468000Y-70695078D02*
X96468000Y-70177922D01*
G04 #@! TO.C,R4*
X88340000Y-81275422D02*
X88340000Y-81792578D01*
X86920000Y-81275422D02*
X86920000Y-81792578D01*
G04 #@! TO.C,R3*
X88444000Y-75950578D02*
X88444000Y-75433422D01*
X89864000Y-75950578D02*
X89864000Y-75433422D01*
G04 #@! TO.C,R2*
X91642000Y-81275422D02*
X91642000Y-81792578D01*
X90222000Y-81275422D02*
X90222000Y-81792578D01*
G04 #@! TO.C,R1*
X104214000Y-81275422D02*
X104214000Y-81792578D01*
X102794000Y-81275422D02*
X102794000Y-81792578D01*
G04 #@! TO.C,Q1*
X92318000Y-77302000D02*
X94118000Y-77302000D01*
X94118000Y-74082000D02*
X91668000Y-74082000D01*
G04 #@! TO.C,J6*
X95778000Y-41970000D02*
X95778000Y-39310000D01*
X95778000Y-41970000D02*
X98378000Y-41970000D01*
X98378000Y-41970000D02*
X98378000Y-39310000D01*
X95778000Y-39310000D02*
X98378000Y-39310000D01*
X93178000Y-39310000D02*
X94508000Y-39310000D01*
X93178000Y-40640000D02*
X93178000Y-39310000D01*
G04 #@! TO.C,J5*
X104708000Y-65786000D02*
X102048000Y-65786000D01*
X104708000Y-65786000D02*
X104708000Y-63186000D01*
X104708000Y-63186000D02*
X102048000Y-63186000D01*
X102048000Y-65786000D02*
X102048000Y-63186000D01*
X102048000Y-68386000D02*
X102048000Y-67056000D01*
X103378000Y-68386000D02*
X102048000Y-68386000D01*
G04 #@! TO.C,J4*
X89468000Y-65786000D02*
X86808000Y-65786000D01*
X89468000Y-65786000D02*
X89468000Y-63186000D01*
X89468000Y-63186000D02*
X86808000Y-63186000D01*
X86808000Y-65786000D02*
X86808000Y-63186000D01*
X86808000Y-68386000D02*
X86808000Y-67056000D01*
X88138000Y-68386000D02*
X86808000Y-68386000D01*
G04 #@! TO.C,J3*
X86858000Y-54102000D02*
X89518000Y-54102000D01*
X86858000Y-54102000D02*
X86858000Y-56702000D01*
X86858000Y-56702000D02*
X89518000Y-56702000D01*
X89518000Y-54102000D02*
X89518000Y-56702000D01*
X89518000Y-51502000D02*
X89518000Y-52832000D01*
X88188000Y-51502000D02*
X89518000Y-51502000D01*
G04 #@! TO.C,J2*
X102098000Y-54102000D02*
X104758000Y-54102000D01*
X102098000Y-54102000D02*
X102098000Y-56702000D01*
X102098000Y-56702000D02*
X104758000Y-56702000D01*
X104758000Y-54102000D02*
X104758000Y-56702000D01*
X104758000Y-51502000D02*
X104758000Y-52832000D01*
X103428000Y-51502000D02*
X104758000Y-51502000D01*
G04 #@! TO.C,J1*
X91858000Y-87137500D02*
X92308000Y-87137500D01*
X91858000Y-88987500D02*
X91858000Y-87137500D01*
X99658000Y-91537500D02*
X99658000Y-91287500D01*
X91858000Y-91537500D02*
X91858000Y-91287500D01*
X99658000Y-88987500D02*
X99658000Y-87137500D01*
X99658000Y-87137500D02*
X99208000Y-87137500D01*
X94058000Y-86587500D02*
X94508000Y-86587500D01*
X94058000Y-86587500D02*
X94058000Y-87037500D01*
G04 #@! TO.C,C3*
X96019252Y-60654000D02*
X95496748Y-60654000D01*
X96019252Y-59234000D02*
X95496748Y-59234000D01*
G04 #@! TO.C,C2*
X100890000Y-75953252D02*
X100890000Y-75430748D01*
X102310000Y-75953252D02*
X102310000Y-75430748D01*
G04 #@! TO.C,C1*
X99294000Y-81795252D02*
X99294000Y-81272748D01*
X100714000Y-81795252D02*
X100714000Y-81272748D01*
G04 #@! TO.C,H4*
D10*
X103996095Y-90876380D02*
X103996095Y-89876380D01*
X103996095Y-90352571D02*
X104567523Y-90352571D01*
X104567523Y-90876380D02*
X104567523Y-89876380D01*
X105472285Y-90209714D02*
X105472285Y-90876380D01*
X105234190Y-89828761D02*
X104996095Y-90543047D01*
X105615142Y-90543047D01*
G04 #@! TO.C,H3*
X103996095Y-42152380D02*
X103996095Y-41152380D01*
X103996095Y-41628571D02*
X104567523Y-41628571D01*
X104567523Y-42152380D02*
X104567523Y-41152380D01*
X104948476Y-41152380D02*
X105567523Y-41152380D01*
X105234190Y-41533333D01*
X105377047Y-41533333D01*
X105472285Y-41580952D01*
X105519904Y-41628571D01*
X105567523Y-41723809D01*
X105567523Y-41961904D01*
X105519904Y-42057142D01*
X105472285Y-42104761D01*
X105377047Y-42152380D01*
X105091333Y-42152380D01*
X104996095Y-42104761D01*
X104948476Y-42057142D01*
G04 #@! TO.C,H2*
X85996095Y-90876380D02*
X85996095Y-89876380D01*
X85996095Y-90352571D02*
X86567523Y-90352571D01*
X86567523Y-90876380D02*
X86567523Y-89876380D01*
X86996095Y-89971619D02*
X87043714Y-89924000D01*
X87138952Y-89876380D01*
X87377047Y-89876380D01*
X87472285Y-89924000D01*
X87519904Y-89971619D01*
X87567523Y-90066857D01*
X87567523Y-90162095D01*
X87519904Y-90304952D01*
X86948476Y-90876380D01*
X87567523Y-90876380D01*
G04 #@! TO.C,H1*
X85996095Y-42152380D02*
X85996095Y-41152380D01*
X85996095Y-41628571D02*
X86567523Y-41628571D01*
X86567523Y-42152380D02*
X86567523Y-41152380D01*
X87567523Y-42152380D02*
X86996095Y-42152380D01*
X87281809Y-42152380D02*
X87281809Y-41152380D01*
X87186571Y-41295238D01*
X87091333Y-41390476D01*
X86996095Y-41438095D01*
G04 #@! TO.C,Q3*
X92360761Y-45291619D02*
X92265523Y-45244000D01*
X92170285Y-45148761D01*
X92027428Y-45005904D01*
X91932190Y-44958285D01*
X91836952Y-44958285D01*
X91884571Y-45196380D02*
X91789333Y-45148761D01*
X91694095Y-45053523D01*
X91646476Y-44863047D01*
X91646476Y-44529714D01*
X91694095Y-44339238D01*
X91789333Y-44244000D01*
X91884571Y-44196380D01*
X92075047Y-44196380D01*
X92170285Y-44244000D01*
X92265523Y-44339238D01*
X92313142Y-44529714D01*
X92313142Y-44863047D01*
X92265523Y-45053523D01*
X92170285Y-45148761D01*
X92075047Y-45196380D01*
X91884571Y-45196380D01*
X92646476Y-44196380D02*
X93265523Y-44196380D01*
X92932190Y-44577333D01*
X93075047Y-44577333D01*
X93170285Y-44624952D01*
X93217904Y-44672571D01*
X93265523Y-44767809D01*
X93265523Y-45005904D01*
X93217904Y-45101142D01*
X93170285Y-45148761D01*
X93075047Y-45196380D01*
X92789333Y-45196380D01*
X92694095Y-45148761D01*
X92646476Y-45101142D01*
G04 #@! TO.C,Q2*
X97424761Y-45291619D02*
X97329523Y-45244000D01*
X97234285Y-45148761D01*
X97091428Y-45005904D01*
X96996190Y-44958285D01*
X96900952Y-44958285D01*
X96948571Y-45196380D02*
X96853333Y-45148761D01*
X96758095Y-45053523D01*
X96710476Y-44863047D01*
X96710476Y-44529714D01*
X96758095Y-44339238D01*
X96853333Y-44244000D01*
X96948571Y-44196380D01*
X97139047Y-44196380D01*
X97234285Y-44244000D01*
X97329523Y-44339238D01*
X97377142Y-44529714D01*
X97377142Y-44863047D01*
X97329523Y-45053523D01*
X97234285Y-45148761D01*
X97139047Y-45196380D01*
X96948571Y-45196380D01*
X97758095Y-44291619D02*
X97805714Y-44244000D01*
X97900952Y-44196380D01*
X98139047Y-44196380D01*
X98234285Y-44244000D01*
X98281904Y-44291619D01*
X98329523Y-44386857D01*
X98329523Y-44482095D01*
X98281904Y-44624952D01*
X97710476Y-45196380D01*
X98329523Y-45196380D01*
G04 #@! TO.C,U3*
X94996095Y-61584380D02*
X94996095Y-62393904D01*
X95043714Y-62489142D01*
X95091333Y-62536761D01*
X95186571Y-62584380D01*
X95377047Y-62584380D01*
X95472285Y-62536761D01*
X95519904Y-62489142D01*
X95567523Y-62393904D01*
X95567523Y-61584380D01*
X95948476Y-61584380D02*
X96567523Y-61584380D01*
X96234190Y-61965333D01*
X96377047Y-61965333D01*
X96472285Y-62012952D01*
X96519904Y-62060571D01*
X96567523Y-62155809D01*
X96567523Y-62393904D01*
X96519904Y-62489142D01*
X96472285Y-62536761D01*
X96377047Y-62584380D01*
X96091333Y-62584380D01*
X95996095Y-62536761D01*
X95948476Y-62489142D01*
G04 #@! TO.C,U2*
X97282095Y-72244380D02*
X97282095Y-73053904D01*
X97329714Y-73149142D01*
X97377333Y-73196761D01*
X97472571Y-73244380D01*
X97663047Y-73244380D01*
X97758285Y-73196761D01*
X97805904Y-73149142D01*
X97853523Y-73053904D01*
X97853523Y-72244380D01*
X98282095Y-72339619D02*
X98329714Y-72292000D01*
X98424952Y-72244380D01*
X98663047Y-72244380D01*
X98758285Y-72292000D01*
X98805904Y-72339619D01*
X98853523Y-72434857D01*
X98853523Y-72530095D01*
X98805904Y-72672952D01*
X98234476Y-73244380D01*
X98853523Y-73244380D01*
G04 #@! TO.C,U1*
X94742095Y-78086380D02*
X94742095Y-78895904D01*
X94789714Y-78991142D01*
X94837333Y-79038761D01*
X94932571Y-79086380D01*
X95123047Y-79086380D01*
X95218285Y-79038761D01*
X95265904Y-78991142D01*
X95313523Y-78895904D01*
X95313523Y-78086380D01*
X96313523Y-79086380D02*
X95742095Y-79086380D01*
X96027809Y-79086380D02*
X96027809Y-78086380D01*
X95932571Y-78229238D01*
X95837333Y-78324476D01*
X95742095Y-78372095D01*
G04 #@! TO.C,R7*
X97353333Y-51506380D02*
X97020000Y-51030190D01*
X96781904Y-51506380D02*
X96781904Y-50506380D01*
X97162857Y-50506380D01*
X97258095Y-50554000D01*
X97305714Y-50601619D01*
X97353333Y-50696857D01*
X97353333Y-50839714D01*
X97305714Y-50934952D01*
X97258095Y-50982571D01*
X97162857Y-51030190D01*
X96781904Y-51030190D01*
X97686666Y-50506380D02*
X98353333Y-50506380D01*
X97924761Y-51506380D01*
G04 #@! TO.C,R6*
X92289333Y-51506380D02*
X91956000Y-51030190D01*
X91717904Y-51506380D02*
X91717904Y-50506380D01*
X92098857Y-50506380D01*
X92194095Y-50554000D01*
X92241714Y-50601619D01*
X92289333Y-50696857D01*
X92289333Y-50839714D01*
X92241714Y-50934952D01*
X92194095Y-50982571D01*
X92098857Y-51030190D01*
X91717904Y-51030190D01*
X93146476Y-50506380D02*
X92956000Y-50506380D01*
X92860761Y-50554000D01*
X92813142Y-50601619D01*
X92717904Y-50744476D01*
X92670285Y-50934952D01*
X92670285Y-51315904D01*
X92717904Y-51411142D01*
X92765523Y-51458761D01*
X92860761Y-51506380D01*
X93051238Y-51506380D01*
X93146476Y-51458761D01*
X93194095Y-51411142D01*
X93241714Y-51315904D01*
X93241714Y-51077809D01*
X93194095Y-50982571D01*
X93146476Y-50934952D01*
X93051238Y-50887333D01*
X92860761Y-50887333D01*
X92765523Y-50934952D01*
X92717904Y-50982571D01*
X92670285Y-51077809D01*
G04 #@! TO.C,R5*
X94560380Y-70603166D02*
X94084190Y-70936500D01*
X94560380Y-71174595D02*
X93560380Y-71174595D01*
X93560380Y-70793642D01*
X93608000Y-70698404D01*
X93655619Y-70650785D01*
X93750857Y-70603166D01*
X93893714Y-70603166D01*
X93988952Y-70650785D01*
X94036571Y-70698404D01*
X94084190Y-70793642D01*
X94084190Y-71174595D01*
X93560380Y-69698404D02*
X93560380Y-70174595D01*
X94036571Y-70222214D01*
X93988952Y-70174595D01*
X93941333Y-70079357D01*
X93941333Y-69841261D01*
X93988952Y-69746023D01*
X94036571Y-69698404D01*
X94131809Y-69650785D01*
X94369904Y-69650785D01*
X94465142Y-69698404D01*
X94512761Y-69746023D01*
X94560380Y-69841261D01*
X94560380Y-70079357D01*
X94512761Y-70174595D01*
X94465142Y-70222214D01*
G04 #@! TO.C,R4*
X89732380Y-81700666D02*
X89256190Y-82034000D01*
X89732380Y-82272095D02*
X88732380Y-82272095D01*
X88732380Y-81891142D01*
X88780000Y-81795904D01*
X88827619Y-81748285D01*
X88922857Y-81700666D01*
X89065714Y-81700666D01*
X89160952Y-81748285D01*
X89208571Y-81795904D01*
X89256190Y-81891142D01*
X89256190Y-82272095D01*
X89065714Y-80843523D02*
X89732380Y-80843523D01*
X88684761Y-81081619D02*
X89399047Y-81319714D01*
X89399047Y-80700666D01*
G04 #@! TO.C,R3*
X87956380Y-75858666D02*
X87480190Y-76192000D01*
X87956380Y-76430095D02*
X86956380Y-76430095D01*
X86956380Y-76049142D01*
X87004000Y-75953904D01*
X87051619Y-75906285D01*
X87146857Y-75858666D01*
X87289714Y-75858666D01*
X87384952Y-75906285D01*
X87432571Y-75953904D01*
X87480190Y-76049142D01*
X87480190Y-76430095D01*
X86956380Y-75525333D02*
X86956380Y-74906285D01*
X87337333Y-75239619D01*
X87337333Y-75096761D01*
X87384952Y-75001523D01*
X87432571Y-74953904D01*
X87527809Y-74906285D01*
X87765904Y-74906285D01*
X87861142Y-74953904D01*
X87908761Y-75001523D01*
X87956380Y-75096761D01*
X87956380Y-75382476D01*
X87908761Y-75477714D01*
X87861142Y-75525333D01*
G04 #@! TO.C,R2*
X93034380Y-81700666D02*
X92558190Y-82034000D01*
X93034380Y-82272095D02*
X92034380Y-82272095D01*
X92034380Y-81891142D01*
X92082000Y-81795904D01*
X92129619Y-81748285D01*
X92224857Y-81700666D01*
X92367714Y-81700666D01*
X92462952Y-81748285D01*
X92510571Y-81795904D01*
X92558190Y-81891142D01*
X92558190Y-82272095D01*
X92129619Y-81319714D02*
X92082000Y-81272095D01*
X92034380Y-81176857D01*
X92034380Y-80938761D01*
X92082000Y-80843523D01*
X92129619Y-80795904D01*
X92224857Y-80748285D01*
X92320095Y-80748285D01*
X92462952Y-80795904D01*
X93034380Y-81367333D01*
X93034380Y-80748285D01*
G04 #@! TO.C,R1*
X102322380Y-81700666D02*
X101846190Y-82034000D01*
X102322380Y-82272095D02*
X101322380Y-82272095D01*
X101322380Y-81891142D01*
X101370000Y-81795904D01*
X101417619Y-81748285D01*
X101512857Y-81700666D01*
X101655714Y-81700666D01*
X101750952Y-81748285D01*
X101798571Y-81795904D01*
X101846190Y-81891142D01*
X101846190Y-82272095D01*
X102322380Y-80748285D02*
X102322380Y-81319714D01*
X102322380Y-81034000D02*
X101322380Y-81034000D01*
X101465238Y-81129238D01*
X101560476Y-81224476D01*
X101608095Y-81319714D01*
G04 #@! TO.C,Q1*
X93122761Y-73339619D02*
X93027523Y-73292000D01*
X92932285Y-73196761D01*
X92789428Y-73053904D01*
X92694190Y-73006285D01*
X92598952Y-73006285D01*
X92646571Y-73244380D02*
X92551333Y-73196761D01*
X92456095Y-73101523D01*
X92408476Y-72911047D01*
X92408476Y-72577714D01*
X92456095Y-72387238D01*
X92551333Y-72292000D01*
X92646571Y-72244380D01*
X92837047Y-72244380D01*
X92932285Y-72292000D01*
X93027523Y-72387238D01*
X93075142Y-72577714D01*
X93075142Y-72911047D01*
X93027523Y-73101523D01*
X92932285Y-73196761D01*
X92837047Y-73244380D01*
X92646571Y-73244380D01*
X94027523Y-73244380D02*
X93456095Y-73244380D01*
X93741809Y-73244380D02*
X93741809Y-72244380D01*
X93646571Y-72387238D01*
X93551333Y-72482476D01*
X93456095Y-72530095D01*
G04 #@! TO.C,J1*
X95424666Y-85239880D02*
X95424666Y-85954166D01*
X95377047Y-86097023D01*
X95281809Y-86192261D01*
X95138952Y-86239880D01*
X95043714Y-86239880D01*
X96424666Y-86239880D02*
X95853238Y-86239880D01*
X96138952Y-86239880D02*
X96138952Y-85239880D01*
X96043714Y-85382738D01*
X95948476Y-85477976D01*
X95853238Y-85525595D01*
G04 #@! TO.C,C3*
X95591333Y-58777142D02*
X95543714Y-58824761D01*
X95400857Y-58872380D01*
X95305619Y-58872380D01*
X95162761Y-58824761D01*
X95067523Y-58729523D01*
X95019904Y-58634285D01*
X94972285Y-58443809D01*
X94972285Y-58300952D01*
X95019904Y-58110476D01*
X95067523Y-58015238D01*
X95162761Y-57920000D01*
X95305619Y-57872380D01*
X95400857Y-57872380D01*
X95543714Y-57920000D01*
X95591333Y-57967619D01*
X95924666Y-57872380D02*
X96543714Y-57872380D01*
X96210380Y-58253333D01*
X96353238Y-58253333D01*
X96448476Y-58300952D01*
X96496095Y-58348571D01*
X96543714Y-58443809D01*
X96543714Y-58681904D01*
X96496095Y-58777142D01*
X96448476Y-58824761D01*
X96353238Y-58872380D01*
X96067523Y-58872380D01*
X95972285Y-58824761D01*
X95924666Y-58777142D01*
G04 #@! TO.C,C2*
X103735142Y-75849666D02*
X103782761Y-75897285D01*
X103830380Y-76040142D01*
X103830380Y-76135380D01*
X103782761Y-76278238D01*
X103687523Y-76373476D01*
X103592285Y-76421095D01*
X103401809Y-76468714D01*
X103258952Y-76468714D01*
X103068476Y-76421095D01*
X102973238Y-76373476D01*
X102878000Y-76278238D01*
X102830380Y-76135380D01*
X102830380Y-76040142D01*
X102878000Y-75897285D01*
X102925619Y-75849666D01*
X102925619Y-75468714D02*
X102878000Y-75421095D01*
X102830380Y-75325857D01*
X102830380Y-75087761D01*
X102878000Y-74992523D01*
X102925619Y-74944904D01*
X103020857Y-74897285D01*
X103116095Y-74897285D01*
X103258952Y-74944904D01*
X103830380Y-75516333D01*
X103830380Y-74897285D01*
G04 #@! TO.C,C1*
X98711142Y-81700666D02*
X98758761Y-81748285D01*
X98806380Y-81891142D01*
X98806380Y-81986380D01*
X98758761Y-82129238D01*
X98663523Y-82224476D01*
X98568285Y-82272095D01*
X98377809Y-82319714D01*
X98234952Y-82319714D01*
X98044476Y-82272095D01*
X97949238Y-82224476D01*
X97854000Y-82129238D01*
X97806380Y-81986380D01*
X97806380Y-81891142D01*
X97854000Y-81748285D01*
X97901619Y-81700666D01*
X98806380Y-80748285D02*
X98806380Y-81319714D01*
X98806380Y-81034000D02*
X97806380Y-81034000D01*
X97949238Y-81129238D01*
X98044476Y-81224476D01*
X98092095Y-81319714D01*
G04 #@! TD*
M02*
