M48
; DRILL file {KiCad (5.1.6)-1} date 01/24/21 21:52:41
; FORMAT={-:-/ absolute / inch / decimal}
; #@! TF.CreationDate,2021-01-24T21:52:41-08:00
; #@! TF.GenerationSoftware,Kicad,Pcbnew,(5.1.6)-1
FMAT,2
INCH
T1C0.0118
T2C0.0157
T3C0.0236
T4C0.0335
T5C0.0394
T6C0.0866
%
G90
G05
T1
X3.4113Y-2.86
X3.44Y-2.35
X3.44Y-2.4
X3.4506Y-2.86
X3.49Y-2.35
X3.49Y-2.4
X3.49Y-2.86
X3.575Y-2.235
X3.6Y-2.575
X3.61Y-2.86
X3.64Y-2.125
X3.655Y-3.215
X3.655Y-3.305
X3.73Y-3.06
X3.735Y-2.67
X3.76Y-3.25
X3.77Y-2.255
X3.8Y-2.635
X3.81Y-3.055
X3.83Y-2.25
X3.83Y-2.2894
X3.865Y-3.17
X3.8694Y-2.25
X3.8694Y-2.2894
X3.9087Y-2.25
X3.9087Y-2.2894
X3.92Y-2.86
X3.9481Y-2.25
X3.9481Y-2.2894
X3.95Y-2.53
X3.95Y-2.5694
X3.95Y-2.6087
X3.95Y-2.6481
X3.95Y-2.6875
X3.9594Y-2.86
X3.9875Y-2.25
X3.9875Y-2.2894
X3.9894Y-2.53
X3.9894Y-2.5694
X3.9894Y-2.6087
X3.9894Y-2.6481
X3.9894Y-2.6875
X3.9987Y-2.86
X4.015Y-3.305
X4.0381Y-2.86
X4.0775Y-2.86
T2
X3.63Y-2.27
X4.175Y-2.88
X4.0594Y-3.4213
X4.0784Y-3.3753
X4.0784Y-3.4672
X4.1243Y-3.3563
X4.1243Y-3.4862
X4.1703Y-3.3753
X4.1703Y-3.4672
X4.1893Y-3.4213
X3.3507Y-1.7677
X3.3697Y-1.7218
X3.3697Y-1.8137
X3.4157Y-1.7028
X3.4157Y-1.8327
X3.4616Y-1.7218
X3.4616Y-1.8137
X3.4806Y-1.7677
X3.3507Y-3.4213
X3.3697Y-3.3753
X3.3697Y-3.4672
X3.4157Y-3.3563
X3.4157Y-3.4862
X3.4616Y-3.3753
X3.4616Y-3.4672
X3.4806Y-3.4213
X4.0594Y-1.7677
X4.0784Y-1.7218
X4.0784Y-1.8137
X4.1243Y-1.7028
X4.1243Y-1.8327
X4.1703Y-1.7218
X4.1703Y-1.8137
X4.1893Y-1.7677
T4
X3.6716Y-3.4424
X3.8684Y-3.4424
T5
X3.47Y-2.54
X3.47Y-2.64
X3.7208Y-1.6
X3.8208Y-1.6
X4.07Y-2.54
X4.07Y-2.64
X3.472Y-2.08
X3.472Y-2.18
X4.072Y-2.08
X4.072Y-2.18
T6
X4.1243Y-3.4213
X3.4157Y-1.7677
X3.4157Y-3.4213
X4.1243Y-1.7677
T3
G00X3.6322Y-3.5625
M15
G01X3.6322Y-3.5349
M16
G05
G00X3.9078Y-3.5349
M15
G01X3.9078Y-3.5625
M16
G05
T0
M30
